{"glyphs":{"0":{"ha":594,"x_min":0,"x_max":0,"o":"m 99 0 l 397 0 l 397 99 l 99 99 l 99 0 z m 0 596 l 0 99 l 99 99 l 99 596 l 0 596 z m 397 694 l 99 694 l 99 596 l 397 596 l 397 694 z m 397 596 l 397 99 l 496 99 l 496 596 l 397 596 z "},"1":{"ha":297,"x_min":0,"x_max":0,"o":"m 0 694 l 0 596 l 99 596 l 99 0 l 199 0 l 199 694 l 0 694 z "},"2":{"ha":594,"x_min":0,"x_max":0,"o":"m 0 694 l 0 596 l 397 596 l 397 694 l 0 694 z m 496 596 l 397 596 l 397 397 l 496 397 l 496 596 z m 397 397 l 99 397 l 99 297 l 397 297 l 397 397 z m 0 297 l 0 0 l 496 0 l 496 99 l 99 99 l 99 297 l 0 297 z "},"3":{"ha":594,"x_min":0,"x_max":0,"o":"m 0 694 l 0 596 l 397 596 l 397 694 l 0 694 z m 496 596 l 397 596 l 397 397 l 496 397 l 496 596 z m 0 397 l 0 297 l 397 297 l 397 397 l 0 397 z m 496 99 l 496 297 l 397 297 l 397 99 l 496 99 z m 0 0 l 397 0 l 397 99 l 0 99 l 0 0 z "},"4":{"ha":594,"x_min":0,"x_max":0,"o":"m 0 694 l 0 297 l 99 297 l 99 694 l 0 694 z m 397 694 l 397 297 l 99 297 l 99 199 l 397 199 l 397 0 l 496 0 l 496 694 l 397 694 z "},"5":{"ha":594,"x_min":0,"x_max":0,"o":"m 0 0 l 397 0 l 397 99 l 0 99 l 0 0 z m 496 99 l 496 297 l 397 297 l 397 99 l 496 99 z m 496 596 l 496 694 l 0 694 l 0 297 l 397 297 l 397 397 l 99 397 l 99 596 l 496 596 z "},"6":{"ha":594,"x_min":0,"x_max":0,"o":"m 0 596 l 0 99 l 99 99 l 99 297 l 397 297 l 397 397 l 99 397 l 99 596 l 0 596 z m 99 0 l 397 0 l 397 99 l 99 99 l 99 0 z m 496 99 l 496 297 l 397 297 l 397 99 l 496 99 z m 397 694 l 99 694 l 99 596 l 397 596 l 397 694 z "},"7":{"ha":594,"x_min":0,"x_max":0,"o":"m 0 694 l 0 596 l 397 596 l 397 397 l 496 397 l 496 694 l 0 694 z m 297 297 l 397 297 l 397 397 l 297 397 l 297 297 z m 199 0 l 297 0 l 297 297 l 199 297 l 199 0 z "},"8":{"ha":594,"x_min":0,"x_max":0,"o":"m 99 0 l 397 0 l 397 99 l 99 99 l 99 0 z m 0 297 l 0 99 l 99 99 l 99 297 l 0 297 z m 99 397 l 99 297 l 397 297 l 397 397 l 99 397 z m 496 99 l 496 297 l 397 297 l 397 99 l 496 99 z m 397 694 l 99 694 l 99 596 l 397 596 l 397 694 z m 0 596 l 0 397 l 99 397 l 99 596 l 0 596 z m 496 397 l 496 596 l 397 596 l 397 397 l 496 397 z "},"9":{"ha":594,"x_min":0,"x_max":0,"o":"m 496 99 l 496 596 l 397 596 l 397 397 l 99 397 l 99 297 l 397 297 l 397 99 l 496 99 z m 397 694 l 99 694 l 99 596 l 397 596 l 397 694 z m 0 596 l 0 397 l 99 397 l 99 596 l 0 596 z m 99 0 l 397 0 l 397 99 l 99 99 l 99 0 z "}," ":{"ha":397,"x_min":0,"x_max":0,"o":""},"!":{"ha":197,"x_min":0,"x_max":0,"o":"m 0 693 l 0 197 l 99 197 l 99 693 l 0 693 z m 0 -1 l 99 -1 l 99 99 l 0 99 l 0 -1 z "},"\"":{"ha":396,"x_min":0,"x_max":0,"o":"m 0 496 l 99 496 l 99 694 l 0 694 l 0 496 z m 199 694 l 199 496 l 297 496 l 297 694 l 199 694 z "},"#":{"ha":594,"x_min":0,"x_max":0,"o":"m 496 397 l 496 496 l 397 496 l 397 596 l 297 596 l 297 496 l 199 496 l 199 596 l 99 596 l 99 496 l 0 496 l 0 397 l 99 397 l 99 297 l 0 297 l 0 199 l 99 199 l 99 99 l 199 99 l 199 199 l 297 199 l 297 99 l 397 99 l 397 199 l 496 199 l 496 297 l 397 297 l 397 397 l 496 397 z m 297 297 l 199 297 l 199 397 l 297 397 l 297 297 z "},"$":{"ha":594,"x_min":0,"x_max":0,"o":"m 397 297 l 397 397 l 99 397 l 99 297 l 397 297 z m 0 0 l 199 0 l 199 -99 l 297 -99 l 297 0 l 397 0 l 397 99 l 0 99 l 0 0 z m 496 99 l 496 297 l 397 297 l 397 99 l 496 99 z m 0 596 l 0 397 l 99 397 l 99 596 l 0 596 z m 496 596 l 496 694 l 297 694 l 297 793 l 199 793 l 199 694 l 99 694 l 99 596 l 496 596 z "},"%":{"ha":1090,"x_min":0,"x_max":0,"o":"m 297 199 l 397 199 l 397 297 l 297 297 l 297 199 z m 893 793 l 793 793 l 793 694 l 893 694 l 893 793 z m 397 297 l 496 297 l 496 397 l 397 397 l 397 297 z m 199 99 l 297 99 l 297 199 l 199 199 l 199 99 z m 99 0 l 199 0 l 199 99 l 99 99 l 99 0 z m 496 397 l 596 397 l 596 496 l 496 496 l 496 397 z m 694 596 l 596 596 l 596 496 l 694 496 l 694 596 z m 793 694 l 694 694 l 694 596 l 793 596 l 793 694 z m 596 297 l 596 99 l 694 99 l 694 297 l 596 297 z m 694 0 l 893 0 l 893 99 l 694 99 l 694 0 z m 893 297 l 893 99 l 992 99 l 992 297 l 893 297 z m 893 397 l 694 397 l 694 297 l 893 297 l 893 397 z m 99 397 l 297 397 l 297 496 l 99 496 l 99 397 z m 99 694 l 0 694 l 0 496 l 99 496 l 99 694 z m 397 496 l 397 694 l 297 694 l 297 496 l 397 496 z m 297 793 l 99 793 l 99 694 l 297 694 l 297 793 z "},"&":{"ha":793,"x_min":0,"x_max":0,"o":"m 0 297 l 0 99 l 99 99 l 99 297 l 0 297 z m 694 297 l 694 397 l 496 397 l 496 596 l 397 596 l 397 397 l 99 397 l 99 297 l 397 297 l 397 99 l 496 99 l 496 297 l 694 297 z m 0 596 l 0 397 l 99 397 l 99 596 l 0 596 z m 397 694 l 99 694 l 99 596 l 397 596 l 397 694 z m 99 0 l 397 0 l 397 99 l 99 99 l 99 0 z m 694 0 l 694 99 l 496 99 l 496 0 l 694 0 z "},"'":{"ha":197,"x_min":0,"x_max":0,"o":"m 99 496 l 99 694 l 0 694 l 0 496 l 99 496 z "},"(":{"ha":297,"x_min":0,"x_max":0,"o":"m 199 -99 l 199 0 l 99 0 l 99 -99 l 199 -99 z m 0 694 l 0 0 l 99 0 l 99 694 l 0 694 z m 199 793 l 99 793 l 99 694 l 199 694 l 199 793 z "},")":{"ha":297,"x_min":0,"x_max":0,"o":"m 0 -99 l 100 -99 l 100 0 l 0 0 z m 199 694 l 100 694 l 100 0 l 199 0 z m 0 793 l 0 694 l 100 694 l 100 793 z "},"*":{"ha":594,"x_min":0,"x_max":0,"o":"m 99 694 l 99 596 l 199 596 l 199 694 l 99 694 z m 397 694 l 297 694 l 297 596 l 397 596 l 397 694 z m 99 199 l 199 199 l 199 297 l 99 297 l 99 199 z m 397 199 l 397 297 l 297 297 l 297 199 l 397 199 z m 496 397 l 496 496 l 297 496 l 297 596 l 199 596 l 199 496 l 0 496 l 0 397 l 199 397 l 199 297 l 297 297 l 297 397 l 496 397 z "},"+":{"ha":594,"x_min":0,"x_max":0,"o":"m 496 397 l 297 397 l 297 596 l 199 596 l 199 397 l 0 397 l 0 297 l 199 297 l 199 99 l 297 99 l 297 297 l 496 297 l 496 397 z "},",":{"ha":297,"x_min":0,"x_max":0,"o":"m 0 -99 l 99 -99 l 99 0 l 0 0 l 0 -99 z m 99 99 l 99 0 l 199 0 l 199 99 l 99 99 z "},"-":{"ha":396,"x_min":0,"x_max":0,"o":"m 0 199 l 297 199 l 297 297 l 0 297 l 0 199 z "},".":{"ha":197,"x_min":0,"x_max":0,"o":"m 99 0 l 99 99 l 0 99 l 0 0 l 99 0 z "},"/":{"ha":892,"x_min":0,"x_max":0,"o":"m 0 -99 l 99 -99 l 99 0 l 0 0 l 0 -99 z m 99 0 l 199 0 l 199 99 l 99 99 l 99 0 z m 199 99 l 297 99 l 297 199 l 199 199 l 199 99 z m 297 199 l 397 199 l 397 297 l 297 297 l 297 199 z m 397 297 l 496 297 l 496 397 l 397 397 l 397 297 z m 496 397 l 596 397 l 596 496 l 496 496 l 496 397 z m 596 496 l 694 496 l 694 596 l 596 596 l 596 496 z m 694 694 l 694 596 l 793 596 l 793 694 l 694 694 z "},":":{"ha":197,"x_min":0,"x_max":0,"o":"m 0 0 l 99 0 l 99 99 l 0 99 l 0 0 z m 0 496 l 0 397 l 99 397 l 99 496 l 0 496 z "},";":{"ha":297,"x_min":0,"x_max":0,"o":"m 99 0 l 199 0 l 199 99 l 99 99 l 99 0 z m 0 -99 l 99 -99 l 99 0 l 0 0 l 0 -99 z m 99 496 l 99 397 l 199 397 l 199 496 l 99 496 z "},"<":{"ha":496,"x_min":0,"x_max":0,"o":"m 0 397 l 0 297 l 99 297 l 99 397 z m 199 496 l 99 496 l 99 397 l 199 397 z m 297 596 l 199 596 l 199 496 l 297 496 l 297 596 l 397 596 l 397 694 l 297 694 z m 99 297 l 99 199 l 199 199 l 199 297 z m 297 99 l 297 0 l 397 0 l 397 99 l 297 99 l 297 199 l 199 199 l 199 99 z "},"=":{"ha":594,"x_min":0,"x_max":0,"o":"m 0 397 l 496 397 l 496 496 l 0 496 l 0 397 z m 0 199 l 496 199 l 496 297 l 0 297 l 0 199 z "},">":{"ha":496,"x_min":0,"x_max":0,"o":"m 397 397 l 297 397 l 297 297 l 397 297 l 397 397 z m 199 496 l 199 397 l 297 397 l 297 496 l 199 496 z m 99 596 l 99 694 l 0 694 l 0 596 l 99 596 l 99 496 l 199 496 l 199 596 l 99 596 z m 297 297 l 199 297 l 199 199 l 297 199 l 297 297 z m 99 99 l 199 99 l 199 199 l 99 199 l 99 99 l 0 99 l 0 0 l 99 0 l 99 99 z "},"?":{"ha":594,"x_min":0,"x_max":0,"o":"m 199 -1 l 297 -1 l 297 99 l 199 99 l 199 -1 z m 199 197 l 297 197 l 297 296 l 199 296 l 199 197 z m 297 296 l 397 296 l 397 396 l 297 396 l 297 296 z m 397 594 l 397 396 l 496 396 l 496 594 l 397 594 z m 99 693 l 99 594 l 397 594 l 397 693 l 99 693 z m 0 494 l 99 494 l 99 594 l 0 594 l 0 494 z "},"@":{"ha":793,"x_min":0,"x_max":0,"o":"m 199 199 l 199 99 l 297 99 l 297 199 l 199 199 z m 596 397 l 596 297 l 297 297 l 297 199 l 596 199 l 596 99 l 297 99 l 297 0 l 694 0 l 694 397 l 596 397 z m 99 496 l 99 397 l 596 397 l 596 496 l 99 496 z m 0 -99 l 99 -99 l 99 397 l 0 397 l 0 -99 z m 596 -199 l 596 -99 l 99 -99 l 99 -199 l 596 -199 z "},"A":{"ha":594,"x_min":0,"x_max":0,"o":"m 397 694 l 99 694 l 99 596 l 397 596 l 397 694 z m 397 596 l 397 397 l 99 397 l 99 596 l 0 596 l 0 0 l 99 0 l 99 297 l 397 297 l 397 0 l 496 0 l 496 596 l 397 596 z "},"B":{"ha":594,"x_min":0,"x_max":0,"o":"m 496 397 l 496 596 l 397 596 l 397 397 l 496 397 z m 99 397 l 99 596 l 397 596 l 397 694 l 0 694 l 0 0 l 397 0 l 397 99 l 99 99 l 99 297 l 397 297 l 397 397 l 99 397 z m 496 99 l 496 297 l 397 297 l 397 99 l 496 99 z "},"C":{"ha":594,"x_min":0,"x_max":0,"o":"m 496 0 l 496 99 l 99 99 l 99 0 l 496 0 z m 0 596 l 0 99 l 99 99 l 99 596 l 0 596 z m 496 694 l 99 694 l 99 596 l 496 596 l 496 694 z "},"D":{"ha":594,"x_min":0,"x_max":0,"o":"m 99 596 l 397 596 l 397 694 l 0 694 l 0 0 l 397 0 l 397 99 l 99 99 l 99 596 z m 397 596 l 397 99 l 496 99 l 496 596 l 397 596 z "},"E":{"ha":594,"x_min":0,"x_max":0,"o":"m 496 596 l 496 694 l 0 694 l 0 0 l 496 0 l 496 99 l 99 99 l 99 297 l 496 297 l 496 397 l 99 397 l 99 596 l 496 596 z "},"F":{"ha":594,"x_min":0,"x_max":0,"o":"m 496 596 l 496 694 l 0 694 l 0 0 l 99 0 l 99 297 l 496 297 l 496 397 l 99 397 l 99 596 l 496 596 z "},"G":{"ha":594,"x_min":0,"x_max":0,"o":"m 496 0 l 496 397 l 397 397 l 397 99 l 99 99 l 99 0 l 496 0 z m 0 596 l 0 99 l 99 99 l 99 596 l 0 596 z m 496 694 l 99 694 l 99 596 l 496 596 l 496 694 z "},"H":{"ha":594,"x_min":0,"x_max":0,"o":"m 397 694 l 397 397 l 99 397 l 99 694 l 0 694 l 0 0 l 99 0 l 99 297 l 397 297 l 397 0 l 496 0 l 496 694 l 397 694 z "},"I":{"ha":396,"x_min":0,"x_max":0,"o":"m 297 596 l 297 694 l 0 694 l 0 596 l 99 596 l 99 99 l 0 99 l 0 0 l 297 0 l 297 99 l 199 99 l 199 596 l 297 596 z "},"J":{"ha":594,"x_min":0,"x_max":0,"o":"m 0 297 l 0 99 l 99 99 l 99 297 l 0 297 z m 99 0 l 397 0 l 397 99 l 99 99 l 99 0 z m 199 694 l 199 596 l 397 596 l 397 99 l 496 99 l 496 694 l 199 694 z "},"K":{"ha":594,"x_min":0,"x_max":0,"o":"m 99 397 l 99 694 l 0 694 l 0 0 l 99 0 l 99 297 l 199 297 l 199 397 l 99 397 z m 297 496 l 199 496 l 199 397 l 297 397 l 297 496 z m 397 596 l 297 596 l 297 496 l 397 496 l 397 596 z m 496 694 l 397 694 l 397 596 l 496 596 l 496 694 z m 297 199 l 297 297 l 199 297 l 199 199 l 297 199 z m 397 99 l 397 199 l 297 199 l 297 99 l 397 99 z m 496 0 l 496 99 l 397 99 l 397 0 l 496 0 z "},"L":{"ha":594,"x_min":0,"x_max":0,"o":"m 99 99 l 99 694 l 0 694 l 0 0 l 496 0 l 496 99 l 99 99 z "},"M":{"ha":793,"x_min":0,"x_max":0,"o":"m 99 596 l 99 694 l 0 694 l 0 0 l 99 0 l 99 496 l 199 496 l 199 596 l 99 596 z m 199 496 l 199 397 l 297 397 l 297 496 l 199 496 z m 297 297 l 397 297 l 397 397 l 297 397 l 297 297 z m 397 397 l 496 397 l 496 496 l 397 496 l 397 397 z m 596 694 l 596 596 l 496 596 l 496 496 l 596 496 l 596 0 l 694 0 l 694 694 l 596 694 z "},"N":{"ha":594,"x_min":0,"x_max":0,"o":"m 99 496 l 99 694 l 0 694 l 0 0 l 99 0 l 99 397 l 199 397 l 199 496 l 99 496 z m 199 397 l 199 297 l 297 297 l 297 397 l 199 397 z m 397 694 l 397 297 l 297 297 l 297 199 l 397 199 l 397 0 l 496 0 l 496 694 l 397 694 z "},"O":{"ha":594,"x_min":0,"x_max":0,"o":"m 99 0 l 397 0 l 397 99 l 99 99 l 99 0 z m 0 596 l 0 99 l 99 99 l 99 596 l 0 596 z m 397 694 l 99 694 l 99 596 l 397 596 l 397 694 z m 397 596 l 397 99 l 496 99 l 496 596 l 397 596 z "},"P":{"ha":594,"x_min":0,"x_max":0,"o":"m 99 596 l 397 596 l 397 694 l 0 694 l 0 0 l 99 0 l 99 297 l 397 297 l 397 397 l 99 397 l 99 596 z m 397 596 l 397 397 l 496 397 l 496 596 l 397 596 z "},"Q":{"ha":594,"x_min":0,"x_max":0,"o":"m 397 694 l 99 694 l 99 596 l 397 596 l 397 694 z m 0 596 l 0 99 l 99 99 l 99 596 l 0 596 z m 99 99 l 99 0 l 397 0 l 397 -99 l 496 -99 l 496 0 l 397 0 l 397 99 l 99 99 z m 496 99 l 496 596 l 397 596 l 397 99 l 496 99 z "},"R":{"ha":594,"x_min":0,"x_max":0,"o":"m 496 397 l 496 596 l 397 596 l 397 397 l 496 397 z m 99 397 l 99 596 l 397 596 l 397 694 l 0 694 l 0 0 l 99 0 l 99 297 l 397 297 l 397 0 l 496 0 l 496 297 l 397 297 l 397 397 l 99 397 z "},"S":{"ha":594,"x_min":0,"x_max":0,"o":"m 0 0 l 397 0 l 397 99 l 0 99 l 0 0 z m 496 99 l 496 297 l 397 297 l 397 99 l 496 99 z m 397 297 l 397 397 l 99 397 l 99 297 l 397 297 z m 0 596 l 0 397 l 99 397 l 99 596 l 0 596 z m 496 694 l 99 694 l 99 596 l 496 596 l 496 694 z "},"T":{"ha":594,"x_min":0,"x_max":0,"o":"m 496 694 l 0 694 l 0 596 l 199 596 l 199 0 l 297 0 l 297 596 l 496 596 l 496 694 z "},"U":{"ha":594,"x_min":0,"x_max":0,"o":"m 99 0 l 397 0 l 397 99 l 99 99 l 99 0 z m 0 694 l 0 99 l 99 99 l 99 694 l 0 694 z m 397 694 l 397 99 l 496 99 l 496 694 l 397 694 z "},"V":{"ha":594,"x_min":0,"x_max":0,"o":"m 199 199 l 99 199 l 99 99 l 199 99 l 199 0 l 297 0 l 297 99 l 199 99 l 199 199 z m 297 99 l 397 99 l 397 199 l 297 199 l 297 99 z m 0 694 l 0 199 l 99 199 l 99 694 l 0 694 z m 397 694 l 397 199 l 496 199 l 496 694 l 397 694 z "},"W":{"ha":793,"x_min":0,"x_max":0,"o":"m 0 694 l 0 99 l 99 99 l 99 694 l 0 694 z m 99 0 l 199 0 l 199 99 l 99 99 l 99 0 z m 199 99 l 297 99 l 297 199 l 199 199 l 199 99 z m 297 297 l 297 199 l 397 199 l 397 297 l 297 297 z m 397 199 l 397 99 l 496 99 l 496 199 l 397 199 z m 496 0 l 596 0 l 596 99 l 496 99 l 496 0 z m 596 694 l 596 99 l 694 99 l 694 694 l 596 694 z "},"X":{"ha":594,"x_min":0,"x_max":0,"o":"m 0 0 l 99 0 l 99 199 l 0 199 l 0 0 z m 99 199 l 199 199 l 199 297 l 99 297 l 99 199 z m 199 397 l 199 297 l 297 297 l 297 397 l 199 397 z m 397 199 l 397 297 l 297 297 l 297 199 l 397 199 z m 496 0 l 496 199 l 397 199 l 397 0 l 496 0 z m 99 496 l 99 397 l 199 397 l 199 496 l 99 496 z m 0 694 l 0 496 l 99 496 l 99 694 l 0 694 z m 397 496 l 297 496 l 297 397 l 397 397 l 397 496 z m 496 694 l 397 694 l 397 496 l 496 496 l 496 694 z "},"Y":{"ha":594,"x_min":0,"x_max":0,"o":"m 199 0 l 297 0 l 297 297 l 199 297 l 199 0 z m 99 397 l 99 297 l 199 297 l 199 397 l 99 397 z m 0 694 l 0 397 l 99 397 l 99 694 l 0 694 z m 297 297 l 397 297 l 397 397 l 297 397 l 297 297 z m 397 694 l 397 397 l 496 397 l 496 694 l 397 694 z "},"Z":{"ha":594,"x_min":0,"x_max":0,"o":"m 0 0 l 496 0 l 496 99 l 99 99 l 99 199 l 0 199 l 0 0 z m 99 199 l 199 199 l 199 297 l 99 297 l 99 199 z m 199 297 l 297 297 l 297 397 l 199 397 l 199 297 z m 297 397 l 397 397 l 397 496 l 297 496 l 297 397 z m 0 694 l 0 596 l 397 596 l 397 496 l 496 496 l 496 694 l 0 694 z "},"[":{"ha":297,"x_min":0,"x_max":0,"o":"m 199 -99 l 199 0 l 99 0 l 99 694 l 199 694 l 199 793 l 0 793 l 0 -99 l 199 -99 z "},"\\":{"ha":892,"x_min":0,"x_max":0,"o":"m 793 -99 l 793 0 l 694 0 l 694 -99 z m 694 0 l 694 99 l 596 99 l 596 0 z m 596 99 l 596 199 l 496 199 l 496 99 z m 496 199 l 496 297 l 397 297 l 397 199 z m 397 297 l 397 397 l 297 397 l 297 297 z m 297 397 l 297 496 l 199 496 l 199 397 z m 199 496 l 199 596 l 99 596 l 99 496 z m 99 694 l 0 694 l 0 596 l 99 596 z "},"]":{"ha":297,"x_min":0,"x_max":0,"o":"m 0 -99 l 199 -99 l 199 793 l 0 793 l 0 694 l 100 694 l 100 0 l 0 0 l 0 -99 z "},"^":{"ha":594,"x_min":0,"x_max":0,"o":"m 199 694 l 199 596 l 297 596 l 297 694 l 199 694 z m 99 496 l 199 496 l 199 596 l 99 596 l 99 496 z m 297 596 l 297 496 l 397 496 l 397 596 l 297 596 z m 0 397 l 99 397 l 99 496 l 0 496 l 0 397 z m 397 496 l 397 397 l 496 397 l 496 496 l 397 496 z "},"_":{"ha":793,"x_min":0,"x_max":0,"o":"m 0 -99 l 0 -199 l 694 -199 l 694 -99 l 0 -99 z "},"`":{"ha":297,"x_min":0,"x_max":0,"o":"m 99 893 l 99 793 l 199 793 l 199 893 l 99 893 z m 0 992 l 0 893 l 99 893 l 99 992 l 0 992 z "},"a":{"ha":594,"x_min":0,"x_max":0,"o":"m 0 199 l 0 99 l 99 99 l 99 199 l 0 199 z m 397 397 l 397 297 l 99 297 l 99 199 l 397 199 l 397 99 l 99 99 l 99 0 l 496 0 l 496 397 l 397 397 z m 99 496 l 99 397 l 397 397 l 397 496 l 99 496 z "},"b":{"ha":594,"x_min":0,"x_max":0,"o":"m 99 397 l 397 397 l 397 496 l 99 496 l 99 694 l 0 694 l 0 0 l 397 0 l 397 99 l 99 99 l 99 397 z m 397 397 l 397 99 l 496 99 l 496 397 l 397 397 z "},"c":{"ha":594,"x_min":0,"x_max":0,"o":"m 0 397 l 0 99 l 99 99 l 99 397 l 0 397 z m 496 496 l 99 496 l 99 397 l 496 397 l 496 496 z m 496 0 l 496 99 l 99 99 l 99 0 l 496 0 z "},"d":{"ha":594,"x_min":0,"x_max":0,"o":"m 397 397 l 397 99 l 99 99 l 99 0 l 496 0 l 496 694 l 397 694 l 397 496 l 99 496 l 99 397 z m 99 397 l 0 397 l 0 99 l 99 99 z "},"e":{"ha":594,"x_min":0,"x_max":0,"o":"m 397 496 l 99 496 l 99 397 l 397 397 z m 397 397 l 397 297 l 99 297 l 99 397 l 0 397 l 0 99 l 99 99 l 99 199 l 496 199 l 496 397 z m 496 0 l 496 99 l 99 99 l 99 0 z "},"f":{"ha":496,"x_min":0,"x_max":0,"o":"m 0 0 l 99 0 l 99 297 l 297 297 l 297 397 l 99 397 l 99 596 l 0 596 l 0 0 z m 99 694 l 99 596 l 297 596 l 297 694 l 99 694 z m 297 596 l 297 496 l 397 496 l 397 596 l 297 596 z "},"g":{"ha":594,"x_min":0,"x_max":0,"o":"m 0 397 l 0 99 l 99 99 l 99 397 l 0 397 z m 99 496 l 99 397 l 397 397 l 397 99 l 99 99 l 99 0 l 397 0 l 397 -99 l 496 -99 l 496 496 l 99 496 z m 99 -199 l 397 -199 l 397 -99 l 99 -99 l 99 -199 z "},"h":{"ha":594,"x_min":0,"x_max":0,"o":"m 99 397 l 397 397 l 397 496 l 99 496 l 99 694 l 0 694 l 0 0 l 99 0 l 99 397 z m 397 397 l 397 0 l 496 0 l 496 397 l 397 397 z "},"i":{"ha":197,"x_min":0,"x_max":0,"o":"m 0 0 l 99 0 l 99 496 l 0 496 l 0 0 z m 0 694 l 0 596 l 99 596 l 99 694 l 0 694 z "},"j":{"ha":199,"x_min":0,"x_max":0,"o":"m 0 0 l -99 0 l -99 -99 l 0 -99 l 0 0 l 100 0 l 100 496 l 0 496 l 0 0 z m 0 694 l 0 596 l 100 596 l 100 694 l 0 694 z "},"k":{"ha":496,"x_min":0,"x_max":0,"o":"m 99 297 l 99 694 l 0 694 l 0 0 l 99 0 l 99 199 l 199 199 l 199 297 l 99 297 z m 297 99 l 297 199 l 199 199 l 199 99 l 297 99 z m 397 0 l 397 99 l 297 99 l 297 0 l 397 0 z m 297 397 l 199 397 l 199 297 l 297 297 l 297 397 z m 397 496 l 297 496 l 297 397 l 397 397 l 397 496 z "},"l":{"ha":297,"x_min":0,"x_max":0,"o":"m 99 99 l 99 0 l 199 0 l 199 99 l 99 99 z m 0 694 l 0 99 l 99 99 l 99 694 l 0 694 z "},"m":{"ha":793,"x_min":0,"x_max":0,"o":"m 596 397 l 596 0 l 694 0 l 694 397 l 596 397 z m 0 496 l 0 0 l 99 0 l 99 397 l 297 397 l 297 0 l 397 0 l 397 397 l 596 397 l 596 496 l 0 496 z "},"n":{"ha":594,"x_min":0,"x_max":0,"o":"m 397 397 l 397 0 l 496 0 l 496 397 l 397 397 z m 397 397 l 397 496 l 0 496 l 0 0 l 99 0 l 99 397 l 397 397 z "},"o":{"ha":594,"x_min":0,"x_max":0,"o":"m 0 397 l 0 99 l 99 99 l 99 397 l 0 397 z m 99 0 l 397 0 l 397 99 l 99 99 l 99 0 z m 397 397 l 397 99 l 496 99 l 496 397 l 397 397 z m 397 496 l 99 496 l 99 397 l 397 397 l 397 496 z "},"p":{"ha":594,"x_min":0,"x_max":0,"o":"m 99 397 l 397 397 l 397 496 l 0 496 l 0 -199 l 99 -199 l 99 0 l 397 0 l 397 99 l 99 99 l 99 397 z m 397 397 l 397 99 l 496 99 l 496 397 l 397 397 z "},"q":{"ha":594,"x_min":0,"x_max":0,"o":"m 397 397 l 397 99 l 99 99 l 99 0 l 397 0 l 397 -199 l 496 -199 l 496 496 l 99 496 l 99 397 z m 99 397 l 0 397 l 0 99 l 99 99 z "},"r":{"ha":396,"x_min":0,"x_max":0,"o":"m 0 0 l 99 0 l 99 397 l 0 397 l 0 0 z m 99 496 l 99 397 l 297 397 l 297 496 l 99 496 z "},"s":{"ha":594,"x_min":0,"x_max":0,"o":"m 0 0 l 397 0 l 397 99 l 0 99 z m 496 99 l 496 199 l 397 199 l 397 99 z m 397 199 l 397 297 l 99 297 l 99 199 z m 0 397 l 0 297 l 99 297 l 99 397 z m 496 496 l 99 496 l 99 397 l 496 397 z "},"t":{"ha":396,"x_min":0,"x_max":0,"o":"m 297 0 l 297 99 l 99 99 l 99 0 l 297 0 z m 297 397 l 297 496 l 99 496 l 99 596 l 0 596 l 0 99 l 99 99 l 99 397 l 297 397 z "},"u":{"ha":594,"x_min":0,"x_max":0,"o":"m 0 496 l 0 99 l 99 99 l 99 496 l 0 496 z m 99 0 l 397 0 l 397 99 l 99 99 l 99 0 z m 397 496 l 397 99 l 496 99 l 496 496 l 397 496 z "},"v":{"ha":594,"x_min":0,"x_max":0,"o":"m 199 0 l 297 0 l 297 99 l 199 99 l 199 0 z m 99 199 l 99 99 l 199 99 l 199 199 l 99 199 z m 297 99 l 397 99 l 397 199 l 297 199 l 297 99 z m 397 496 l 397 199 l 496 199 l 496 496 l 397 496 z m 0 496 l 0 199 l 99 199 l 99 496 l 0 496 z "},"w":{"ha":793,"x_min":0,"x_max":0,"o":"m 0 496 l 0 99 l 99 99 l 99 496 l 0 496 z m 99 0 l 199 0 l 199 99 l 99 99 l 99 0 z m 199 99 l 297 99 l 297 199 l 199 199 l 199 99 z m 297 297 l 297 199 l 397 199 l 397 297 l 297 297 z m 397 199 l 397 99 l 496 99 l 496 199 l 397 199 z m 496 0 l 596 0 l 596 99 l 496 99 l 496 0 z m 596 496 l 596 99 l 694 99 l 694 496 l 596 496 z "},"x":{"ha":594,"x_min":0,"x_max":0,"o":"m 0 0 l 99 0 l 99 99 l 0 99 l 0 0 z m 99 99 l 199 99 l 199 199 l 99 199 l 99 99 z m 199 297 l 199 199 l 297 199 l 297 297 l 199 297 z m 397 99 l 397 199 l 297 199 l 297 99 l 397 99 z m 496 0 l 496 99 l 397 99 l 397 0 l 496 0 z m 99 397 l 99 297 l 199 297 l 199 397 l 99 397 z m 0 496 l 0 397 l 99 397 l 99 496 l 0 496 z m 397 397 l 297 397 l 297 297 l 397 297 l 397 397 z m 496 496 l 397 496 l 397 397 l 496 397 l 496 496 z "},"y":{"ha":594,"x_min":0,"x_max":0,"o":"m 0 496 l 0 99 l 99 99 l 99 496 l 0 496 z m 397 496 l 397 99 l 99 99 l 99 0 l 397 0 l 397 -99 l 496 -99 l 496 496 l 397 496 z m 99 -199 l 397 -199 l 397 -99 l 99 -99 l 99 -199 z "},"z":{"ha":594,"x_min":0,"x_max":0,"o":"m 99 199 l 99 99 l 0 99 l 0 0 l 496 0 l 496 99 l 199 99 l 199 199 z m 297 297 l 199 297 l 199 199 l 297 199 z m 397 397 l 496 397 l 496 496 l 0 496 l 0 397 l 297 397 l 297 297 l 397 297 z "},"{":{"ha":396,"x_min":0,"x_max":0,"o":"m 297 -99 l 297 0 l 199 0 l 199 -99 l 297 -99 z m 297 793 l 199 793 l 199 694 l 297 694 l 297 793 z m 0 297 l 99 297 l 99 0 l 199 0 l 199 694 l 99 694 l 99 397 l 0 397 l 0 297 z "},"|":{"ha":197,"x_min":0,"x_max":0,"o":"m 99 694 l 0 694 l 0 -199 l 99 -199 l 99 694 z "},"}":{"ha":396,"x_min":0,"x_max":0,"o":"m 0 -99 l 99 -99 l 99 0 l 0 0 z m 0 793 l 0 694 l 99 694 l 99 793 z m 297 297 l 297 397 l 199 397 l 199 694 l 99 694 l 99 0 l 199 0 l 199 297 z "},"~":{"ha":694,"x_min":0,"x_max":0,"o":"m 496 496 l 496 397 l 596 397 l 596 496 l 496 496 z m 0 297 l 99 297 l 99 397 l 0 397 l 0 297 z m 297 496 l 99 496 l 99 397 l 297 397 l 297 297 l 496 297 l 496 397 l 297 397 l 297 496 z "}," ":{"ha":397,"x_min":0,"x_max":0,"o":""},"¡":{"ha":197,"x_min":0,"x_max":0,"o":"m 0 -199 l 99 -199 l 99 297 l 0 297 l 0 -199 z m 0 496 l 0 397 l 99 397 l 99 496 l 0 496 z "},"¢":{"ha":594,"x_min":0,"x_max":0,"o":"m 496 596 l 297 596 l 297 694 l 199 694 l 199 596 l 99 596 l 99 496 l 496 496 l 496 596 z m 0 496 l 0 199 l 99 199 l 99 496 l 0 496 z m 199 99 l 199 0 l 297 0 l 297 99 l 496 99 l 496 199 l 99 199 l 99 99 l 199 99 z "},"£":{"ha":594,"x_min":0,"x_max":0,"o":"m 199 694 l 199 596 l 397 596 l 397 694 l 199 694 z m 496 496 l 496 596 l 397 596 l 397 496 l 496 496 z m 99 397 l 0 397 l 0 297 l 99 297 l 99 0 l 496 0 l 496 99 l 199 99 l 199 297 l 297 297 l 297 397 l 199 397 l 199 596 l 99 596 l 99 397 z "},"¤":{"ha":496,"x_min":0,"x_max":0,"o":"m 0 496 l 0 297 l 99 297 l 99 496 l 0 496 z m 99 199 l 297 199 l 297 297 l 99 297 l 99 199 z m 397 297 l 397 496 l 297 496 l 297 297 l 397 297 z m 99 596 l 99 496 l 297 496 l 297 596 l 99 596 z m 0 694 l 0 596 l 99 596 l 99 694 l 0 694 z m 397 694 l 297 694 l 297 596 l 397 596 l 397 694 z m 0 99 l 99 99 l 99 199 l 0 199 l 0 99 z m 397 99 l 397 199 l 297 199 l 297 99 l 397 99 z "},"¥":{"ha":594,"x_min":0,"x_max":0,"o":"m 199 199 l 99 199 l 99 99 l 199 99 l 199 0 l 297 0 l 297 99 l 397 99 l 397 199 l 297 199 l 297 297 l 199 297 l 199 199 z m 0 694 l 0 397 l 99 397 l 99 694 l 0 694 z m 397 694 l 397 397 l 496 397 l 496 694 l 397 694 z m 99 397 l 99 297 l 199 297 l 199 397 l 99 397 z m 297 297 l 397 297 l 397 397 l 297 397 l 297 297 z "},"¦":{"ha":197,"x_min":0,"x_max":0,"o":"m 0 694 l 0 297 l 99 297 l 99 694 l 0 694 z m 0 -199 l 99 -199 l 99 199 l 0 199 l 0 -199 z "},"§":{"ha":594,"x_min":0,"x_max":0,"o":"m 397 397 l 397 496 l 99 496 l 99 397 l 397 397 z m 496 199 l 496 397 l 397 397 l 397 199 l 496 199 z m 0 596 l 0 496 l 99 496 l 99 596 l 0 596 z m 496 694 l 99 694 l 99 596 l 496 596 l 496 694 z m 0 -99 l 397 -99 l 397 0 l 0 0 l 0 -99 z m 397 0 l 496 0 l 496 99 l 397 99 l 397 0 z m 99 199 l 99 99 l 397 99 l 397 199 l 99 199 z m 0 397 l 0 199 l 99 199 l 99 397 l 0 397 z "},"¨":{"ha":396,"x_min":0,"x_max":0,"o":"m 0 793 l 99 793 l 99 893 l 0 893 l 0 793 z m 199 893 l 199 793 l 297 793 l 297 893 l 199 893 z "},"©":{"ha":892,"x_min":0,"x_max":0,"o":"m 297 496 l 596 496 l 596 596 l 297 596 l 297 496 z m 199 199 l 297 199 l 297 496 l 199 496 l 199 199 z m 596 99 l 596 199 l 297 199 l 297 99 l 596 99 z m 199 694 l 99 694 l 99 596 l 199 596 l 199 694 z m 99 596 l 0 596 l 0 99 l 99 99 l 99 596 z m 199 -99 l 596 -99 l 596 0 l 199 0 l 199 -99 z m 596 793 l 199 793 l 199 694 l 596 694 l 596 793 z m 99 99 l 99 0 l 199 0 l 199 99 l 99 99 z m 694 596 l 694 99 l 793 99 l 793 596 l 694 596 z m 596 694 l 596 596 l 694 596 l 694 694 l 596 694 z m 596 0 l 694 0 l 694 99 l 596 99 l 596 0 z "},"ª":{"ha":496,"x_min":0,"x_max":0,"o":"m 99 694 l 99 596 l 297 596 l 297 694 l 99 694 z m 297 596 l 297 496 l 99 496 l 99 397 l 297 397 l 297 297 l 99 297 l 99 199 l 397 199 l 397 596 l 297 596 z m 0 397 l 0 297 l 99 297 l 99 397 l 0 397 z "},"«":{"ha":694,"x_min":0,"x_max":0,"o":"m 297 596 l 199 596 l 199 496 l 297 496 l 297 596 z m 199 496 l 99 496 l 99 397 l 199 397 l 199 496 z m 99 297 l 99 199 l 199 199 l 199 297 l 99 297 z m 0 397 l 0 297 l 99 297 l 99 397 l 0 397 z m 199 99 l 297 99 l 297 199 l 199 199 l 199 99 z m 596 596 l 496 596 l 496 496 l 596 496 l 596 596 z m 596 99 l 596 199 l 496 199 l 496 99 l 596 99 z m 297 397 l 297 297 l 397 297 l 397 397 l 297 397 z m 496 496 l 397 496 l 397 397 l 496 397 l 496 496 z m 496 199 l 496 297 l 397 297 l 397 199 l 496 199 z "},"¬":{"ha":594,"x_min":0,"x_max":0,"o":"m 0 496 l 0 397 l 397 397 l 397 199 l 496 199 l 496 496 l 0 496 z "},"­":{"ha":496,"x_min":0,"x_max":0,"o":"m 397 297 l 0 297 l 0 199 l 397 199 z "},"®":{"ha":892,"x_min":0,"x_max":0,"o":"m 297 99 l 297 297 l 496 297 l 496 397 l 297 397 l 297 496 l 496 496 l 496 596 l 199 596 l 199 99 l 297 99 z m 199 694 l 99 694 l 99 596 l 199 596 l 199 694 z m 596 793 l 199 793 l 199 694 l 596 694 l 596 793 z m 694 596 l 694 99 l 793 99 l 793 596 l 694 596 z m 99 596 l 0 596 l 0 99 l 99 99 l 99 596 z m 596 0 l 694 0 l 694 99 l 596 99 l 596 0 z m 596 694 l 596 596 l 694 596 l 694 694 l 596 694 z m 99 99 l 99 0 l 199 0 l 199 99 l 99 99 z m 199 -99 l 596 -99 l 596 0 l 199 0 l 199 -99 z m 596 496 l 496 496 l 496 397 l 596 397 l 596 496 z m 596 99 l 596 297 l 496 297 l 496 99 l 596 99 z "},"¯":{"ha":396,"x_min":0,"x_max":0,"o":"m 0 793 l 297 793 l 297 893 l 0 893 l 0 793 z "},"°":{"ha":496,"x_min":0,"x_max":0,"o":"m 0 596 l 0 397 l 99 397 l 99 596 l 0 596 z m 297 694 l 99 694 l 99 596 l 297 596 l 297 694 z m 297 596 l 297 397 l 397 397 l 397 596 l 297 596 z m 99 297 l 297 297 l 297 397 l 99 397 l 99 297 z "},"±":{"ha":594,"x_min":0,"x_max":0,"o":"m 297 496 l 297 694 l 199 694 l 199 496 l 0 496 l 0 397 l 199 397 l 199 199 l 297 199 l 297 397 l 496 397 l 496 496 l 297 496 z m 0 0 l 496 0 l 496 99 l 0 99 l 0 0 z "},"²":{"ha":396,"x_min":0,"x_max":0,"o":"m 0 694 l 0 596 l 199 596 l 199 694 l 0 694 z m 297 596 l 199 596 l 199 496 l 297 496 l 297 596 z m 199 496 l 99 496 l 99 397 l 199 397 l 199 496 z m 0 397 l 0 199 l 297 199 l 297 297 l 99 297 l 99 397 l 0 397 z "},"³":{"ha":396,"x_min":0,"x_max":0,"o":"m 0 694 l 0 596 l 199 596 l 199 694 l 0 694 z m 297 596 l 199 596 l 199 496 l 297 496 l 297 596 z m 0 496 l 0 397 l 199 397 l 199 496 l 0 496 z m 297 297 l 297 397 l 199 397 l 199 297 l 297 297 z m 0 199 l 199 199 l 199 297 l 0 297 l 0 199 z "},"´":{"ha":297,"x_min":0,"x_max":0,"o":"m 99 893 l 0 893 l 0 793 l 99 793 z m 199 992 l 99 992 l 99 893 l 199 893 z "},"µ":{"ha":594,"x_min":0,"x_max":0,"o":"m 99 496 l 0 496 l 0 -99 l 99 -99 l 99 0 l 397 0 l 397 99 l 99 99 l 99 496 z m 397 496 l 397 99 l 496 99 l 496 496 l 397 496 z "},"¶":{"ha":594,"x_min":0,"x_max":0,"o":"m 397 694 l 397 -199 l 496 -199 l 496 694 l 397 694 z m 99 596 l 0 596 l 0 297 l 99 297 l 99 199 l 199 199 l 199 -199 l 297 -199 l 297 694 l 99 694 l 99 596 z "},"·":{"ha":197,"x_min":0,"x_max":0,"o":"m 99 199 l 99 297 l 0 297 l 0 199 l 99 199 z "},"¸":{"ha":297,"x_min":0,"x_max":0,"o":"m 99 -99 l 99 -199 l 199 -199 l 199 -99 l 99 -99 z m 0 -297 l 99 -297 l 99 -199 l 0 -199 l 0 -297 z m 0 0 l 0 -99 l 99 -99 l 99 0 l 0 0 z "},"¹":{"ha":297,"x_min":0,"x_max":0,"o":"m 0 694 l 0 596 l 99 596 l 99 199 l 199 199 l 199 694 l 0 694 z "},"º":{"ha":496,"x_min":0,"x_max":0,"o":"m 0 596 l 0 297 l 99 297 l 99 596 l 0 596 z m 99 199 l 297 199 l 297 297 l 99 297 l 99 199 z m 297 596 l 297 297 l 397 297 l 397 596 l 297 596 z m 297 694 l 99 694 l 99 596 l 297 596 l 297 694 z "},"»":{"ha":694,"x_min":0,"x_max":0,"o":"m 297 596 l 297 496 l 397 496 l 397 596 z m 397 496 l 397 397 l 496 397 l 496 496 z m 496 297 l 397 297 l 397 199 l 496 199 z m 596 397 l 496 397 l 496 297 l 596 297 z m 397 99 l 397 199 l 297 199 l 297 99 z m 0 596 l 0 496 l 99 496 l 99 596 z m 0 99 l 99 99 l 99 199 l 0 199 z m 297 397 l 199 397 l 199 297 l 297 297 z m 99 496 l 99 397 l 199 397 l 199 496 z m 99 199 l 199 199 l 199 297 l 99 297 z "},"¼":{"ha":1190,"x_min":0,"x_max":0,"o":"m 397 297 l 496 297 l 496 396 l 397 396 l 397 297 z m 297 197 l 397 197 l 397 297 l 297 297 l 297 197 z m 199 99 l 297 99 l 297 197 l 199 197 l 199 99 z m 99 0 l 199 0 l 199 99 l 99 99 l 99 0 z m 596 496 l 694 496 l 694 594 l 596 594 l 596 496 z m 496 396 l 596 396 l 596 496 l 496 496 l 496 396 z m 793 694 l 694 694 l 694 594 l 793 594 l 793 694 z m 893 793 l 793 793 l 793 694 l 893 694 l 893 793 z m 99 297 l 199 297 l 199 793 l 0 793 l 0 694 l 99 694 l 99 297 z m 992 496 l 992 297 l 893 297 l 893 496 l 793 496 l 793 197 l 992 197 l 992 0 l 1092 0 l 1092 496 l 992 496 z "},"½":{"ha":1190,"x_min":0,"x_max":0,"o":"m 496 396 l 596 396 l 596 496 l 496 496 l 496 396 z m 596 496 l 694 496 l 694 594 l 596 594 l 596 496 z m 297 197 l 397 197 l 397 297 l 297 297 l 297 197 z m 397 297 l 496 297 l 496 396 l 397 396 l 397 297 z m 893 793 l 793 793 l 793 694 l 893 694 l 893 793 z m 793 694 l 694 694 l 694 594 l 793 594 l 793 694 z m 99 0 l 199 0 l 199 99 l 99 99 l 99 0 z m 199 99 l 297 99 l 297 197 l 199 197 l 199 99 z m 99 297 l 199 297 l 199 793 l 0 793 l 0 694 l 99 694 l 99 297 z m 1092 396 l 992 396 l 992 297 l 1092 297 l 1092 396 z m 992 297 l 893 297 l 893 197 l 992 197 l 992 297 z m 793 197 l 793 0 l 1092 0 l 1092 99 l 893 99 l 893 197 l 793 197 z m 793 496 l 793 396 l 992 396 l 992 496 l 793 496 z "},"¾":{"ha":1190,"x_min":0,"x_max":0,"o":"m 496 396 l 596 396 l 596 496 l 496 496 l 496 396 z m 397 297 l 496 297 l 496 396 l 397 396 l 397 297 z m 199 99 l 297 99 l 297 197 l 199 197 l 199 99 z m 99 0 l 199 0 l 199 99 l 99 99 l 99 0 z m 297 197 l 397 197 l 397 297 l 297 297 l 297 197 z m 596 496 l 694 496 l 694 594 l 596 594 l 596 496 z m 793 694 l 694 694 l 694 594 l 793 594 l 793 694 z m 992 496 l 992 297 l 893 297 l 893 496 l 793 496 l 793 197 l 992 197 l 992 0 l 1092 0 l 1092 496 l 992 496 z m 893 793 l 793 793 l 793 694 l 893 694 l 893 793 z m 0 793 l 0 694 l 199 694 l 199 793 l 0 793 z m 297 694 l 199 694 l 199 594 l 297 594 l 297 694 z m 0 594 l 0 496 l 199 496 l 199 594 l 0 594 z m 297 496 l 199 496 l 199 396 l 297 396 l 297 496 z m 199 396 l 0 396 l 0 297 l 199 297 l 199 396 z "},"¿":{"ha":594,"x_min":0,"x_max":0,"o":"m 297 496 l 199 496 l 199 397 l 297 397 l 297 496 z m 297 297 l 199 297 l 199 199 l 297 199 l 297 297 z m 199 199 l 99 199 l 99 99 l 199 99 l 199 199 z m 99 -99 l 99 99 l 0 99 l 0 -99 l 99 -99 z m 397 -199 l 397 -99 l 99 -99 l 99 -199 l 397 -199 z m 496 0 l 397 0 l 397 -99 l 496 -99 l 496 0 z "},"À":{"ha":594,"x_min":0,"x_max":0,"o":"m 199 893 l 199 793 l 297 793 l 297 893 l 199 893 z m 99 992 l 99 893 l 199 893 l 199 992 l 99 992 z m 397 694 l 99 694 l 99 596 l 397 596 l 397 694 z m 397 596 l 397 397 l 99 397 l 99 596 l 0 596 l 0 0 l 99 0 l 99 297 l 397 297 l 397 0 l 496 0 l 496 596 l 397 596 z "},"Á":{"ha":594,"x_min":0,"x_max":0,"o":"m 297 893 l 199 893 l 199 793 l 297 793 z m 397 992 l 297 992 l 297 893 l 397 893 z m 397 694 l 99 694 l 99 596 l 397 596 l 397 694 z m 397 596 l 397 397 l 99 397 l 99 596 l 0 596 l 0 0 l 99 0 l 99 297 l 397 297 l 397 0 l 496 0 l 496 596 l 397 596 z "},"Â":{"ha":594,"x_min":0,"x_max":0,"o":"m 99 793 l 199 793 l 199 893 l 99 893 l 99 793 z m 199 992 l 199 893 l 297 893 l 297 992 l 199 992 z m 297 893 l 297 793 l 397 793 l 397 893 l 297 893 z m 397 694 l 99 694 l 99 596 l 397 596 l 397 694 z m 397 596 l 397 397 l 99 397 l 99 596 l 0 596 l 0 0 l 99 0 l 99 297 l 397 297 l 397 0 l 496 0 l 496 596 l 397 596 z "},"Ã":{"ha":594,"x_min":0,"x_max":0,"o":"m 397 793 l 397 893 l 99 893 l 99 793 z m 397 694 l 99 694 l 99 596 l 397 596 l 397 694 z m 397 596 l 397 397 l 99 397 l 99 596 l 0 596 l 0 0 l 99 0 l 99 297 l 397 297 l 397 0 l 496 0 l 496 596 l 397 596 z "},"Ä":{"ha":594,"x_min":0,"x_max":0,"o":"m 99 793 l 199 793 l 199 893 l 99 893 l 99 793 z m 297 893 l 297 793 l 397 793 l 397 893 l 297 893 z m 397 694 l 99 694 l 99 596 l 397 596 l 397 694 z m 397 596 l 397 397 l 99 397 l 99 596 l 0 596 l 0 0 l 99 0 l 99 297 l 397 297 l 397 0 l 496 0 l 496 596 l 397 596 z "},"Å":{"ha":594,"x_min":0,"x_max":0,"o":"m 199 793 l 297 793 l 297 893 l 199 893 l 199 793 z m 99 992 l 99 893 l 199 893 l 199 992 l 99 992 z m 297 1092 l 199 1092 l 199 992 l 297 992 l 297 1092 z m 297 992 l 297 893 l 397 893 l 397 992 l 297 992 z m 397 694 l 99 694 l 99 596 l 397 596 l 397 694 z m 397 596 l 397 397 l 99 397 l 99 596 l 0 596 l 0 0 l 99 0 l 99 297 l 397 297 l 397 0 l 496 0 l 496 596 l 397 596 z "},"Æ":{"ha":992,"x_min":0,"x_max":0,"o":"m 496 694 l 496 596 l 893 596 l 893 694 l 496 694 z m 496 596 l 397 596 l 397 694 l 99 694 l 99 596 l 397 596 l 397 397 l 99 397 l 99 596 l 0 596 l 0 0 l 99 0 l 99 297 l 397 297 l 397 0 l 893 0 l 893 99 l 496 99 l 496 297 l 893 297 l 893 397 l 496 397 l 496 596 z "},"Ç":{"ha":594,"x_min":0,"x_max":0,"o":"m 199 0 l 199 -99 l 297 -99 l 297 0 l 496 0 l 496 99 l 99 99 l 99 0 l 199 0 z m 496 694 l 99 694 l 99 596 l 496 596 l 496 694 z m 0 596 l 0 99 l 99 99 l 99 596 l 0 596 z m 397 -199 l 397 -99 l 297 -99 l 297 -199 l 397 -199 z m 199 -297 l 297 -297 l 297 -199 l 199 -199 l 199 -297 z "},"È":{"ha":594,"x_min":0,"x_max":0,"o":"m 496 596 l 496 694 l 0 694 l 0 0 l 496 0 l 496 99 l 99 99 l 99 297 l 496 297 l 496 397 l 99 397 l 99 596 l 496 596 z m 199 893 l 199 793 l 297 793 l 297 893 z m 99 992 l 99 893 l 199 893 l 199 992 z "},"É":{"ha":594,"x_min":0,"x_max":0,"o":"m 496 596 l 496 694 l 0 694 l 0 0 l 496 0 l 496 99 l 99 99 l 99 297 l 496 297 l 496 397 l 99 397 l 99 596 l 496 596 z m 199 893 l 199 793 l 297 793 l 297 893 z m 297 992 l 297 893 l 397 893 l 397 992 z "},"Ê":{"ha":594,"x_min":0,"x_max":0,"o":"m 496 596 l 496 694 l 0 694 l 0 0 l 496 0 l 496 99 l 99 99 l 99 297 l 496 297 l 496 397 l 99 397 l 99 596 l 496 596 z m 99 793 l 199 793 l 199 893 l 99 893 z m 199 992 l 199 893 l 297 893 l 297 992 z m 297 893 l 297 793 l 397 793 l 397 893 z "},"Ë":{"ha":594,"x_min":0,"x_max":0,"o":"m 496 596 l 496 694 l 0 694 l 0 0 l 496 0 l 496 99 l 99 99 l 99 297 l 496 297 l 496 397 l 99 397 l 99 596 l 496 596 z m 99 793 l 199 793 l 199 893 l 99 893 z m 297 893 l 297 793 l 397 793 l 397 893 z "},"Ì":{"ha":396,"x_min":0,"x_max":0,"o":"m 99 893 l 99 793 l 199 793 l 199 893 l 99 893 z m 0 992 l 0 893 l 99 893 l 99 992 l 0 992 z m 297 596 l 297 694 l 0 694 l 0 596 l 99 596 l 99 99 l 0 99 l 0 0 l 297 0 l 297 99 l 199 99 l 199 596 l 297 596 z "},"Í":{"ha":396,"x_min":0,"x_max":0,"o":"m 199 893 l 99 893 l 99 793 l 199 793 z m 297 992 l 199 992 l 199 893 l 297 893 z m 297 596 l 297 694 l 0 694 l 0 596 l 99 596 l 99 99 l 0 99 l 0 0 l 297 0 l 297 99 l 199 99 l 199 596 l 297 596 z "},"Î":{"ha":396,"x_min":0,"x_max":0,"o":"m 0 793 l 99 793 l 99 893 l 0 893 l 0 793 z m 99 992 l 99 893 l 199 893 l 199 992 l 99 992 z m 199 893 l 199 793 l 297 793 l 297 893 l 199 893 z m 297 596 l 297 694 l 0 694 l 0 596 l 99 596 l 99 99 l 0 99 l 0 0 l 297 0 l 297 99 l 199 99 l 199 596 l 297 596 z "},"Ï":{"ha":396,"x_min":0,"x_max":0,"o":"m 0 793 l 99 793 l 99 893 l 0 893 l 0 793 z m 199 893 l 199 793 l 297 793 l 297 893 l 199 893 z m 297 596 l 297 694 l 0 694 l 0 596 l 99 596 l 99 99 l 0 99 l 0 0 l 297 0 l 297 99 l 199 99 l 199 596 l 297 596 z "},"Ð":{"ha":694,"x_min":0,"x_max":0,"o":"m 199 297 l 297 297 l 297 397 l 199 397 l 199 596 l 496 596 l 496 694 l 99 694 l 99 397 l 0 397 l 0 297 l 99 297 l 99 0 l 496 0 l 496 99 l 199 99 l 199 297 z m 496 596 l 496 99 l 596 99 l 596 596 l 496 596 z "},"Ñ":{"ha":594,"x_min":0,"x_max":0,"o":"m 99 496 l 99 694 l 0 694 l 0 0 l 99 0 l 99 397 l 199 397 l 199 496 l 99 496 z m 199 397 l 199 297 l 297 297 l 297 397 l 199 397 z m 397 694 l 397 297 l 297 297 l 297 199 l 397 199 l 397 0 l 496 0 l 496 694 l 397 694 z m 397 893 l 99 893 l 99 793 l 397 793 l 397 893 z "},"Ò":{"ha":594,"x_min":0,"x_max":0,"o":"m 199 893 l 199 793 l 297 793 l 297 893 z m 99 992 l 99 893 l 199 893 l 199 992 z m 99 0 l 397 0 l 397 99 l 99 99 l 99 0 z m 0 596 l 0 99 l 99 99 l 99 596 l 0 596 z m 397 694 l 99 694 l 99 596 l 397 596 l 397 694 z m 397 596 l 397 99 l 496 99 l 496 596 l 397 596 z "},"Ó":{"ha":594,"x_min":0,"x_max":0,"o":"m 199 893 l 199 793 l 297 793 l 297 893 z m 297 992 l 297 893 l 397 893 l 397 992 z m 99 0 l 397 0 l 397 99 l 99 99 l 99 0 z m 0 596 l 0 99 l 99 99 l 99 596 l 0 596 z m 397 694 l 99 694 l 99 596 l 397 596 l 397 694 z m 397 596 l 397 99 l 496 99 l 496 596 l 397 596 z "},"Ô":{"ha":594,"x_min":0,"x_max":0,"o":"m 99 793 l 199 793 l 199 893 l 99 893 z m 199 992 l 199 893 l 297 893 l 297 992 z m 297 893 l 297 793 l 397 793 l 397 893 z m 99 0 l 397 0 l 397 99 l 99 99 l 99 0 z m 0 596 l 0 99 l 99 99 l 99 596 l 0 596 z m 397 694 l 99 694 l 99 596 l 397 596 l 397 694 z m 397 596 l 397 99 l 496 99 l 496 596 l 397 596 z "},"Õ":{"ha":594,"x_min":0,"x_max":0,"o":"m 397 893 l 99 893 l 99 793 l 397 793 z m 99 0 l 397 0 l 397 99 l 99 99 l 99 0 z m 0 596 l 0 99 l 99 99 l 99 596 l 0 596 z m 397 694 l 99 694 l 99 596 l 397 596 l 397 694 z m 397 596 l 397 99 l 496 99 l 496 596 l 397 596 z "},"Ö":{"ha":594,"x_min":0,"x_max":0,"o":"m 99 793 l 199 793 l 199 893 l 99 893 z m 297 893 l 297 793 l 397 793 l 397 893 z m 99 0 l 397 0 l 397 99 l 99 99 l 99 0 z m 0 596 l 0 99 l 99 99 l 99 596 l 0 596 z m 397 694 l 99 694 l 99 596 l 397 596 l 397 694 z m 397 596 l 397 99 l 496 99 l 496 596 l 397 596 z "},"×":{"ha":594,"x_min":0,"x_max":0,"o":"m 0 99 l 99 99 l 99 199 l 0 199 l 0 99 z m 99 199 l 199 199 l 199 297 l 99 297 l 99 199 z m 199 397 l 199 297 l 297 297 l 297 397 l 199 397 z m 397 199 l 397 297 l 297 297 l 297 199 l 397 199 z m 496 99 l 496 199 l 397 199 l 397 99 l 496 99 z m 99 496 l 99 397 l 199 397 l 199 496 l 99 496 z m 0 596 l 0 496 l 99 496 l 99 596 l 0 596 z m 397 496 l 297 496 l 297 397 l 397 397 l 397 496 z m 496 596 l 397 596 l 397 496 l 496 496 l 496 596 z "},"Ø":{"ha":594,"x_min":0,"x_max":0,"o":"m 99 0 l 397 0 l 397 99 l 99 99 l 99 0 z m 397 694 l 99 694 l 99 596 l 397 596 l 397 694 z m 397 596 l 397 496 l 297 496 l 297 397 l 397 397 l 397 99 l 496 99 l 496 596 l 397 596 z m 199 199 l 199 297 l 99 297 l 99 596 l 0 596 l 0 99 l 99 99 l 99 199 l 199 199 z m 199 297 l 297 297 l 297 397 l 199 397 l 199 297 z "},"Ù":{"ha":594,"x_min":0,"x_max":0,"o":"m 199 893 l 199 793 l 297 793 l 297 893 z m 99 992 l 99 893 l 199 893 l 199 992 z m 99 0 l 397 0 l 397 99 l 99 99 l 99 0 z m 0 694 l 0 99 l 99 99 l 99 694 l 0 694 z m 397 694 l 397 99 l 496 99 l 496 694 l 397 694 z "},"Ú":{"ha":594,"x_min":0,"x_max":0,"o":"m 199 893 l 199 793 l 297 793 l 297 893 z m 297 992 l 297 893 l 397 893 l 397 992 z m 99 0 l 397 0 l 397 99 l 99 99 l 99 0 z m 0 694 l 0 99 l 99 99 l 99 694 l 0 694 z m 397 694 l 397 99 l 496 99 l 496 694 l 397 694 z "},"Û":{"ha":594,"x_min":0,"x_max":0,"o":"m 99 793 l 199 793 l 199 893 l 99 893 z m 199 992 l 199 893 l 297 893 l 297 992 z m 297 893 l 297 793 l 397 793 l 397 893 z m 99 0 l 397 0 l 397 99 l 99 99 l 99 0 z m 0 694 l 0 99 l 99 99 l 99 694 l 0 694 z m 397 694 l 397 99 l 496 99 l 496 694 l 397 694 z "},"Ü":{"ha":594,"x_min":0,"x_max":0,"o":"m 99 793 l 199 793 l 199 893 l 99 893 z m 297 893 l 297 793 l 397 793 l 397 893 z m 99 0 l 397 0 l 397 99 l 99 99 l 99 0 z m 0 694 l 0 99 l 99 99 l 99 694 l 0 694 z m 397 694 l 397 99 l 496 99 l 496 694 l 397 694 z "},"Ý":{"ha":594,"x_min":0,"x_max":0,"o":"m 199 0 l 297 0 l 297 297 l 199 297 z m 99 397 l 99 297 l 199 297 l 199 397 z m 0 694 l 0 397 l 99 397 l 99 694 z m 297 297 l 397 297 l 397 397 l 297 397 z m 397 694 l 397 397 l 496 397 l 496 694 z m 199 893 l 199 793 l 297 793 l 297 893 z m 297 992 l 297 893 l 397 893 l 397 992 z "},"Þ":{"ha":594,"x_min":0,"x_max":0,"o":"m 99 496 l 397 496 l 397 596 l 99 596 l 99 694 l 0 694 l 0 0 l 99 0 l 99 99 l 397 99 l 397 199 l 99 199 l 99 496 z m 397 496 l 397 199 l 496 199 l 496 496 l 397 496 z "},"ß":{"ha":594,"x_min":0,"x_max":0,"o":"m 0 0 l 99 0 l 99 596 l 0 596 l 0 0 z m 99 694 l 99 596 l 397 596 l 397 694 l 99 694 z m 496 596 l 397 596 l 397 397 l 496 397 l 496 596 z m 199 397 l 199 297 l 397 297 l 397 397 l 199 397 z m 496 99 l 496 297 l 397 297 l 397 99 l 496 99 z m 199 0 l 397 0 l 397 99 l 199 99 l 199 0 z "},"à":{"ha":594,"x_min":0,"x_max":0,"o":"m 199 694 l 199 596 l 297 596 l 297 694 l 199 694 z m 99 793 l 99 694 l 199 694 l 199 793 l 99 793 z m 0 199 l 0 99 l 99 99 l 99 199 l 0 199 z m 397 397 l 397 297 l 99 297 l 99 199 l 397 199 l 397 99 l 99 99 l 99 0 l 496 0 l 496 397 l 397 397 z m 99 496 l 99 397 l 397 397 l 397 496 l 99 496 z "},"á":{"ha":594,"x_min":0,"x_max":0,"o":"m 297 694 l 199 694 l 199 596 l 297 596 z m 397 793 l 297 793 l 297 694 l 397 694 z m 0 199 l 0 99 l 99 99 l 99 199 l 0 199 z m 397 397 l 397 297 l 99 297 l 99 199 l 397 199 l 397 99 l 99 99 l 99 0 l 496 0 l 496 397 l 397 397 z m 99 496 l 99 397 l 397 397 l 397 496 l 99 496 z "},"â":{"ha":594,"x_min":0,"x_max":0,"o":"m 99 596 l 199 596 l 199 694 l 99 694 l 99 596 z m 199 793 l 199 694 l 297 694 l 297 793 l 199 793 z m 297 694 l 297 596 l 397 596 l 397 694 l 297 694 z m 0 199 l 0 99 l 99 99 l 99 199 l 0 199 z m 397 397 l 397 297 l 99 297 l 99 199 l 397 199 l 397 99 l 99 99 l 99 0 l 496 0 l 496 397 l 397 397 z m 99 496 l 99 397 l 397 397 l 397 496 l 99 496 z "},"ã":{"ha":594,"x_min":0,"x_max":0,"o":"m 397 596 l 397 694 l 99 694 l 99 596 z m 0 199 l 0 99 l 99 99 l 99 199 l 0 199 z m 397 397 l 397 297 l 99 297 l 99 199 l 397 199 l 397 99 l 99 99 l 99 0 l 496 0 l 496 397 l 397 397 z m 99 496 l 99 397 l 397 397 l 397 496 l 99 496 z "},"ä":{"ha":594,"x_min":0,"x_max":0,"o":"m 99 596 l 199 596 l 199 694 l 99 694 l 99 596 z m 297 694 l 297 596 l 397 596 l 397 694 l 297 694 z m 0 199 l 0 99 l 99 99 l 99 199 l 0 199 z m 397 397 l 397 297 l 99 297 l 99 199 l 397 199 l 397 99 l 99 99 l 99 0 l 496 0 l 496 397 l 397 397 z m 99 496 l 99 397 l 397 397 l 397 496 l 99 496 z "},"å":{"ha":594,"x_min":0,"x_max":0,"o":"m 199 596 l 297 596 l 297 694 l 199 694 l 199 596 z m 99 793 l 99 694 l 199 694 l 199 793 l 99 793 z m 297 893 l 199 893 l 199 793 l 297 793 l 297 893 z m 297 793 l 297 694 l 397 694 l 397 793 l 297 793 z m 0 199 l 0 99 l 99 99 l 99 199 l 0 199 z m 397 397 l 397 297 l 99 297 l 99 199 l 397 199 l 397 99 l 99 99 l 99 0 l 496 0 l 496 397 l 397 397 z m 99 496 l 99 397 l 397 397 l 397 496 l 99 496 z "},"æ":{"ha":992,"x_min":0,"x_max":0,"o":"m 0 199 l 0 99 l 99 99 l 99 199 l 0 199 z m 893 199 l 893 397 l 793 397 l 793 297 l 496 297 l 496 397 l 793 397 l 793 496 l 496 496 l 496 397 l 397 397 l 397 297 l 99 297 l 99 199 l 397 199 l 397 99 l 99 99 l 99 0 l 893 0 l 893 99 l 496 99 l 496 199 l 893 199 z m 99 496 l 99 397 l 397 397 l 397 496 l 99 496 z "},"ç":{"ha":594,"x_min":0,"x_max":0,"o":"m 199 0 l 199 -99 l 297 -99 l 297 0 l 496 0 l 496 99 l 99 99 l 99 0 l 199 0 z m 496 496 l 99 496 l 99 397 l 496 397 l 496 496 z m 0 397 l 0 99 l 99 99 l 99 397 l 0 397 z m 397 -199 l 397 -99 l 297 -99 l 297 -199 l 397 -199 z m 199 -297 l 297 -297 l 297 -199 l 199 -199 l 199 -297 z "},"è":{"ha":594,"x_min":0,"x_max":0,"o":"m 397 496 l 99 496 l 99 397 l 397 397 l 397 496 z m 397 397 l 397 297 l 99 297 l 99 397 l 0 397 l 0 99 l 99 99 l 99 199 l 496 199 l 496 397 l 397 397 z m 496 0 l 496 99 l 99 99 l 99 0 l 496 0 z m 199 694 l 199 596 l 297 596 l 297 694 z m 99 793 l 99 694 l 199 694 l 199 793 z "},"é":{"ha":594,"x_min":0,"x_max":0,"o":"m 397 496 l 99 496 l 99 397 l 397 397 l 397 496 z m 397 397 l 397 297 l 99 297 l 99 397 l 0 397 l 0 99 l 99 99 l 99 199 l 496 199 l 496 397 l 397 397 z m 496 0 l 496 99 l 99 99 l 99 0 l 496 0 z m 199 694 l 199 596 l 297 596 l 297 694 z m 297 793 l 297 694 l 397 694 l 397 793 z "},"ê":{"ha":594,"x_min":0,"x_max":0,"o":"m 397 496 l 99 496 l 99 397 l 397 397 l 397 496 z m 397 397 l 397 297 l 99 297 l 99 397 l 0 397 l 0 99 l 99 99 l 99 199 l 496 199 l 496 397 l 397 397 z m 496 0 l 496 99 l 99 99 l 99 0 l 496 0 z m 99 596 l 199 596 l 199 694 l 99 694 z m 199 793 l 199 694 l 297 694 l 297 793 z m 297 694 l 297 596 l 397 596 l 397 694 z "},"ë":{"ha":594,"x_min":0,"x_max":0,"o":"m 397 496 l 99 496 l 99 397 l 397 397 l 397 496 z m 397 397 l 397 297 l 99 297 l 99 397 l 0 397 l 0 99 l 99 99 l 99 199 l 496 199 l 496 397 l 397 397 z m 496 0 l 496 99 l 99 99 l 99 0 l 496 0 z m 99 596 l 199 596 l 199 694 l 99 694 z m 297 694 l 297 596 l 397 596 l 397 694 z "},"ì":{"ha":199,"x_min":0,"x_max":0,"o":"m 0 694 l 0 596 l 100 596 l 100 694 l 0 694 z m -99 793 l -99 694 l 0 694 l 0 793 l -99 793 z m 0 0 l 100 0 l 100 496 l 0 496 l 0 0 z "},"í":{"ha":199,"x_min":0,"x_max":0,"o":"m 99 694 l 0 694 l 0 596 l 99 596 z m 199 793 l 99 793 l 99 694 l 199 694 z m 0 0 l 99 0 l 99 496 l 0 496 l 0 0 z "},"î":{"ha":199,"x_min":0,"x_max":0,"o":"m -99 596 l 0 596 l 0 694 l -99 694 l -99 596 z m 0 793 l 0 694 l 100 694 l 100 793 l 0 793 z m 100 694 l 100 596 l 199 596 l 199 694 l 100 694 z m 0 0 l 100 0 l 100 496 l 0 496 l 0 0 z "},"ï":{"ha":199,"x_min":0,"x_max":0,"o":"m -99 596 l 0 596 l 0 694 l -99 694 l -99 596 z m 100 694 l 100 596 l 199 596 l 199 694 l 100 694 z m 0 0 l 100 0 l 100 496 l 0 496 l 0 0 z "},"ð":{"ha":594,"x_min":0,"x_max":0,"o":"m 0 297 l 0 99 l 99 99 l 99 297 l 0 297 z m 99 0 l 397 0 l 397 99 l 99 99 l 99 0 z m 297 397 l 297 496 l 199 496 l 199 397 l 99 397 l 99 297 l 397 297 l 397 99 l 496 99 l 496 496 l 397 496 l 397 397 l 297 397 z m 297 596 l 297 496 l 397 496 l 397 596 l 297 596 z m 199 694 l 199 596 l 297 596 l 297 694 l 199 694 z m 496 694 l 397 694 l 397 596 l 496 596 l 496 694 z "},"ñ":{"ha":594,"x_min":0,"x_max":0,"o":"m 0 496 l 0 0 l 99 0 l 99 397 l 397 397 l 397 496 l 0 496 z m 397 397 l 397 0 l 496 0 l 496 397 l 397 397 z m 397 694 l 99 694 l 99 596 l 397 596 l 397 694 z "},"ò":{"ha":594,"x_min":0,"x_max":0,"o":"m 199 694 l 199 596 l 297 596 l 297 694 z m 99 793 l 99 694 l 199 694 l 199 793 z m 0 397 l 0 99 l 99 99 l 99 397 l 0 397 z m 99 0 l 397 0 l 397 99 l 99 99 l 99 0 z m 397 397 l 397 99 l 496 99 l 496 397 l 397 397 z m 397 496 l 99 496 l 99 397 l 397 397 l 397 496 z "},"ó":{"ha":594,"x_min":0,"x_max":0,"o":"m 199 694 l 199 596 l 297 596 l 297 694 z m 297 793 l 297 694 l 397 694 l 397 793 z m 0 397 l 0 99 l 99 99 l 99 397 l 0 397 z m 99 0 l 397 0 l 397 99 l 99 99 l 99 0 z m 397 397 l 397 99 l 496 99 l 496 397 l 397 397 z m 397 496 l 99 496 l 99 397 l 397 397 l 397 496 z "},"ô":{"ha":594,"x_min":0,"x_max":0,"o":"m 99 596 l 199 596 l 199 694 l 99 694 z m 199 793 l 199 694 l 297 694 l 297 793 z m 297 694 l 297 596 l 397 596 l 397 694 z m 0 397 l 0 99 l 99 99 l 99 397 l 0 397 z m 99 0 l 397 0 l 397 99 l 99 99 l 99 0 z m 397 397 l 397 99 l 496 99 l 496 397 l 397 397 z m 397 496 l 99 496 l 99 397 l 397 397 l 397 496 z "},"õ":{"ha":594,"x_min":0,"x_max":0,"o":"m 397 694 l 99 694 l 99 596 l 397 596 z m 0 397 l 0 99 l 99 99 l 99 397 l 0 397 z m 99 0 l 397 0 l 397 99 l 99 99 l 99 0 z m 397 397 l 397 99 l 496 99 l 496 397 l 397 397 z m 397 496 l 99 496 l 99 397 l 397 397 l 397 496 z "},"ö":{"ha":594,"x_min":0,"x_max":0,"o":"m 99 596 l 199 596 l 199 694 l 99 694 z m 297 694 l 297 596 l 397 596 l 397 694 z m 0 397 l 0 99 l 99 99 l 99 397 l 0 397 z m 99 0 l 397 0 l 397 99 l 99 99 l 99 0 z m 397 397 l 397 99 l 496 99 l 496 397 l 397 397 z m 397 496 l 99 496 l 99 397 l 397 397 l 397 496 z "},"÷":{"ha":594,"x_min":0,"x_max":0,"o":"m 0 397 l 0 297 l 496 297 l 496 397 l 0 397 z m 297 596 l 199 596 l 199 496 l 297 496 l 297 596 z m 199 99 l 297 99 l 297 199 l 199 199 l 199 99 z "},"ø":{"ha":594,"x_min":0,"x_max":0,"o":"m 397 397 l 397 496 l 99 496 l 99 397 l 297 397 l 297 297 l 199 297 l 199 199 l 297 199 l 297 297 l 397 297 l 397 99 l 496 99 l 496 397 l 397 397 z m 199 199 l 99 199 l 99 397 l 0 397 l 0 99 l 99 99 l 99 0 l 397 0 l 397 99 l 199 99 l 199 199 z "},"ù":{"ha":594,"x_min":0,"x_max":0,"o":"m 199 694 l 199 596 l 297 596 l 297 694 z m 99 793 l 99 694 l 199 694 l 199 793 z m 0 496 l 0 99 l 99 99 l 99 496 l 0 496 z m 99 0 l 397 0 l 397 99 l 99 99 l 99 0 z m 397 496 l 397 99 l 496 99 l 496 496 l 397 496 z "},"ú":{"ha":594,"x_min":0,"x_max":0,"o":"m 199 694 l 199 596 l 297 596 l 297 694 z m 297 793 l 297 694 l 397 694 l 397 793 z m 0 496 l 0 99 l 99 99 l 99 496 l 0 496 z m 99 0 l 397 0 l 397 99 l 99 99 l 99 0 z m 397 496 l 397 99 l 496 99 l 496 496 l 397 496 z "},"û":{"ha":594,"x_min":0,"x_max":0,"o":"m 99 596 l 199 596 l 199 694 l 99 694 z m 199 793 l 199 694 l 297 694 l 297 793 z m 297 694 l 297 596 l 397 596 l 397 694 z m 0 496 l 0 99 l 99 99 l 99 496 l 0 496 z m 99 0 l 397 0 l 397 99 l 99 99 l 99 0 z m 397 496 l 397 99 l 496 99 l 496 496 l 397 496 z "},"ü":{"ha":594,"x_min":0,"x_max":0,"o":"m 99 596 l 199 596 l 199 694 l 99 694 z m 297 694 l 297 596 l 397 596 l 397 694 z m 0 496 l 0 99 l 99 99 l 99 496 l 0 496 z m 99 0 l 397 0 l 397 99 l 99 99 l 99 0 z m 397 496 l 397 99 l 496 99 l 496 496 l 397 496 z "},"ý":{"ha":594,"x_min":0,"x_max":0,"o":"m 0 496 l 0 99 l 99 99 l 99 496 z m 397 496 l 397 99 l 99 99 l 99 0 l 397 0 l 397 -99 l 496 -99 l 496 496 z m 99 -199 l 397 -199 l 397 -99 l 99 -99 z m 199 694 l 199 596 l 297 596 l 297 694 z m 297 793 l 297 694 l 397 694 l 397 793 z "},"þ":{"ha":594,"x_min":0,"x_max":0,"o":"m 99 397 l 397 397 l 397 496 l 99 496 l 99 694 l 0 694 l 0 -199 l 99 -199 l 99 0 l 397 0 l 397 99 l 99 99 l 99 397 z m 397 397 l 397 99 l 496 99 l 496 397 l 397 397 z "},"ÿ":{"ha":594,"x_min":0,"x_max":0,"o":"m 99 596 l 199 596 l 199 694 l 99 694 z m 297 694 l 297 596 l 397 596 l 397 694 z m 0 496 l 0 99 l 99 99 l 99 496 z m 397 496 l 397 99 l 99 99 l 99 0 l 397 0 l 397 -99 l 496 -99 l 496 496 z m 99 -199 l 397 -199 l 397 -99 l 99 -99 z "},"ı":{"ha":197,"x_min":0,"x_max":0,"o":"m 0 0 l 99 0 l 99 496 l 0 496 l 0 0 z "},"Ł":{"ha":793,"x_min":0,"x_max":0,"o":"m 297 99 l 297 397 l 397 397 l 397 496 l 297 496 l 297 694 l 199 694 l 199 297 l 99 297 l 99 199 l 0 199 l 0 99 l 99 99 l 99 199 l 199 199 l 199 0 l 694 0 l 694 99 l 297 99 z m 496 596 l 397 596 l 397 496 l 496 496 l 496 596 z "},"ł":{"ha":594,"x_min":0,"x_max":0,"o":"m 297 694 l 199 694 l 199 297 l 99 297 l 99 199 l 0 199 l 0 99 l 99 99 l 99 199 l 199 199 l 199 99 l 297 99 l 297 397 l 397 397 l 397 496 l 297 496 l 297 694 z m 397 596 l 397 496 l 496 496 l 496 596 l 397 596 z m 297 0 l 397 0 l 397 99 l 297 99 l 297 0 z "},"Œ":{"ha":992,"x_min":0,"x_max":0,"o":"m 397 694 l 99 694 l 99 596 l 397 596 l 397 694 z m 893 0 l 893 99 l 496 99 l 496 0 l 893 0 z m 99 596 l 0 596 l 0 99 l 99 99 l 99 0 l 397 0 l 397 99 l 99 99 l 99 596 z m 893 694 l 496 694 l 496 596 l 893 596 l 893 694 z m 397 596 l 397 99 l 496 99 l 496 297 l 893 297 l 893 397 l 496 397 l 496 596 l 397 596 z "},"œ":{"ha":992,"x_min":0,"x_max":0,"o":"m 99 0 l 397 0 l 397 99 l 99 99 l 99 0 z m 0 397 l 0 99 l 99 99 l 99 397 l 0 397 z m 397 496 l 99 496 l 99 397 l 397 397 l 397 496 z m 893 199 l 893 397 l 793 397 l 793 297 l 496 297 l 496 397 l 793 397 l 793 496 l 496 496 l 496 397 l 397 397 l 397 99 l 496 99 l 496 0 l 893 0 l 893 99 l 496 99 l 496 199 l 893 199 z "},"Š":{"ha":594,"x_min":0,"x_max":0,"o":"m 99 992 l 99 893 l 199 893 l 199 992 z m 199 793 l 297 793 l 297 893 l 199 893 z m 297 992 l 297 893 l 397 893 l 397 992 z m 0 0 l 397 0 l 397 99 l 0 99 z m 496 99 l 496 297 l 397 297 l 397 99 z m 397 297 l 397 397 l 99 397 l 99 297 z m 0 596 l 0 397 l 99 397 l 99 596 z m 496 694 l 99 694 l 99 596 l 496 596 z "},"š":{"ha":594,"x_min":0,"x_max":0,"o":"m 99 793 l 99 694 l 199 694 l 199 793 l 99 793 z m 199 596 l 297 596 l 297 694 l 199 694 l 199 596 z m 297 793 l 297 694 l 397 694 l 397 793 l 297 793 z m 0 0 l 397 0 l 397 99 l 0 99 l 0 0 z m 496 99 l 496 199 l 397 199 l 397 99 l 496 99 z m 397 199 l 397 297 l 99 297 l 99 199 l 397 199 z m 0 397 l 0 297 l 99 297 l 99 397 l 0 397 z m 496 496 l 99 496 l 99 397 l 496 397 l 496 496 z "},"Ÿ":{"ha":594,"x_min":0,"x_max":0,"o":"m 99 793 l 199 793 l 199 893 l 99 893 z m 297 893 l 297 793 l 397 793 l 397 893 z m 199 0 l 297 0 l 297 297 l 199 297 l 199 0 z m 99 397 l 99 297 l 199 297 l 199 397 l 99 397 z m 0 694 l 0 397 l 99 397 l 99 694 l 0 694 z m 297 297 l 397 297 l 397 397 l 297 397 l 297 297 z m 397 694 l 397 397 l 496 397 l 496 694 l 397 694 z "},"Ž":{"ha":594,"x_min":0,"x_max":0,"o":"m 0 0 l 496 0 l 496 99 l 99 99 l 99 199 l 0 199 l 0 0 z m 99 199 l 199 199 l 199 297 l 99 297 l 99 199 z m 199 297 l 297 297 l 297 397 l 199 397 l 199 297 z m 297 397 l 397 397 l 397 496 l 297 496 l 297 397 z m 0 694 l 0 596 l 397 596 l 397 496 l 496 496 l 496 694 l 0 694 z m 99 992 l 99 893 l 199 893 l 199 992 l 99 992 z m 199 793 l 297 793 l 297 893 l 199 893 l 199 793 z m 297 992 l 297 893 l 397 893 l 397 992 l 297 992 z "},"ž":{"ha":594,"x_min":0,"x_max":0,"o":"m 99 793 l 99 694 l 199 694 l 199 793 l 99 793 z m 199 596 l 297 596 l 297 694 l 199 694 l 199 596 z m 297 793 l 297 694 l 397 694 l 397 793 l 297 793 z m 99 199 l 99 99 l 0 99 l 0 0 l 496 0 l 496 99 l 199 99 l 199 199 l 99 199 z m 297 297 l 199 297 l 199 199 l 297 199 l 297 297 z m 397 397 l 496 397 l 496 496 l 0 496 l 0 397 l 297 397 l 297 297 l 397 297 l 397 397 z "},"ƒ":{"ha":496,"x_min":0,"x_max":0,"o":"m 0 0 l -99 0 l -99 -99 l 0 -99 l 0 0 l 100 0 l 100 297 l 299 297 l 299 397 l 100 397 l 100 596 l 0 596 l 0 0 z m 299 596 l 299 496 l 397 496 l 397 596 l 299 596 z m 100 694 l 100 596 l 299 596 l 299 694 l 100 694 z "},"ˆ":{"ha":396,"x_min":0,"x_max":0,"o":"m 0 793 l 99 793 l 99 893 l 0 893 l 0 793 z m 99 992 l 99 893 l 199 893 l 199 992 l 99 992 z m 199 893 l 199 793 l 297 793 l 297 893 l 199 893 z "},"ˇ":{"ha":396,"x_min":0,"x_max":0,"o":"m 0 992 l 0 893 l 99 893 l 99 992 l 0 992 z m 99 793 l 199 793 l 199 893 l 99 893 l 99 793 z m 199 992 l 199 893 l 297 893 l 297 992 l 199 992 z "},"ˉ":{"ha":396,"x_min":0,"x_max":0,"o":"m 0 793 l 297 793 l 297 893 l 0 893 l 0 793 z "},"˘":{"ha":396,"x_min":0,"x_max":0,"o":"m 0 992 l 0 793 l 297 793 l 297 992 l 199 992 l 199 893 l 99 893 l 99 992 l 0 992 z "},"˙":{"ha":197,"x_min":0,"x_max":0,"o":"m 0 793 l 99 793 l 99 893 l 0 893 l 0 793 z "},"˚":{"ha":396,"x_min":0,"x_max":0,"o":"m 99 793 l 199 793 l 199 893 l 99 893 l 99 793 z m 0 992 l 0 893 l 99 893 l 99 992 l 0 992 z m 199 1092 l 99 1092 l 99 992 l 199 992 l 199 1092 z m 199 992 l 199 893 l 297 893 l 297 992 l 199 992 z "},"˛":{"ha":297,"x_min":0,"x_max":0,"o":"m 99 -297 l 199 -297 l 199 -199 l 99 -199 l 99 -297 z m 0 -99 l 0 -199 l 99 -199 l 99 -99 l 0 -99 z m 99 0 l 99 -99 l 199 -99 l 199 0 l 99 0 z "},"˜":{"ha":396,"x_min":0,"x_max":0,"o":"m 297 793 l 297 893 l 0 893 l 0 793 l 297 793 z "},"˝":{"ha":496,"x_min":0,"x_max":0,"o":"m 199 992 l 99 992 l 99 893 l 199 893 l 199 793 l 297 793 l 297 893 l 199 893 l 199 992 z m 0 793 l 99 793 l 99 893 l 0 893 l 0 793 z m 297 992 l 297 893 l 397 893 l 397 992 l 297 992 z "},"Δ":{"ha":594,"x_min":0,"x_max":0,"o":"m 397 496 l 397 596 l 297 596 l 297 496 l 397 496 z m 199 596 l 297 596 l 297 694 l 199 694 l 199 596 l 99 596 l 99 496 l 199 496 l 199 596 z m 397 496 l 397 99 l 99 99 l 99 496 l 0 496 l 0 0 l 496 0 l 496 496 l 397 496 z "},"Ω":{"ha":594,"x_min":0,"x_max":0,"o":"m 0 199 l 99 199 l 99 99 l 0 99 l 0 0 l 199 0 l 199 199 l 99 199 l 99 596 l 0 596 l 0 199 z m 397 596 l 397 199 l 496 199 l 496 596 l 397 596 z m 99 694 l 99 596 l 397 596 l 397 694 l 99 694 z m 397 199 l 297 199 l 297 0 l 496 0 l 496 99 l 397 99 l 397 199 z "},"μ":{"ha":594,"x_min":0,"x_max":0,"o":"m 99 496 l 0 496 l 0 -99 l 99 -99 l 99 0 l 397 0 l 397 99 l 99 99 l 99 496 z m 397 496 l 397 99 l 496 99 l 496 496 l 397 496 z "},"π":{"ha":694,"x_min":0,"x_max":0,"o":"m 596 496 l 0 496 l 0 397 l 99 397 l 99 0 l 199 0 l 199 397 l 397 397 l 397 0 l 496 0 l 496 397 l 596 397 l 596 496 z "},"–":{"ha":594,"x_min":0,"x_max":0,"o":"m 0 199 l 496 199 l 496 297 l 0 297 l 0 199 z "},"—":{"ha":793,"x_min":0,"x_max":0,"o":"m 0 199 l 694 199 l 694 297 l 0 297 l 0 199 z "},"‘":{"ha":297,"x_min":0,"x_max":0,"o":"m 99 694 l 99 596 l 0 596 l 0 496 l 99 496 l 99 596 l 199 596 l 199 694 l 99 694 z "},"’":{"ha":297,"x_min":0,"x_max":0,"o":"m 99 694 l 99 596 l 0 596 l 0 496 l 99 496 l 99 596 l 199 596 l 199 694 l 99 694 z "},"‚":{"ha":297,"x_min":0,"x_max":0,"o":"m 99 199 l 99 99 l 0 99 l 0 0 l 99 0 l 99 99 l 199 99 l 199 199 l 99 199 z "},"“":{"ha":496,"x_min":0,"x_max":0,"o":"m 199 694 l 99 694 l 99 596 l 199 596 l 199 496 l 297 496 l 297 596 l 199 596 l 199 694 z m 0 496 l 99 496 l 99 596 l 0 596 l 0 496 z m 297 694 l 297 596 l 397 596 l 397 694 l 297 694 z "},"”":{"ha":496,"x_min":0,"x_max":0,"o":"m 199 694 l 99 694 l 99 596 l 199 596 l 199 496 l 297 496 l 297 596 l 199 596 l 199 694 z m 0 496 l 99 496 l 99 596 l 0 596 l 0 496 z m 297 694 l 297 596 l 397 596 l 397 694 l 297 694 z "},"„":{"ha":496,"x_min":0,"x_max":0,"o":"m 199 199 l 99 199 l 99 99 l 199 99 l 199 0 l 297 0 l 297 99 l 199 99 l 199 199 z m 0 0 l 99 0 l 99 99 l 0 99 l 0 0 z m 297 199 l 297 99 l 397 99 l 397 199 l 297 199 z "},"†":{"ha":396,"x_min":0,"x_max":0,"o":"m 297 397 l 297 496 l 199 496 l 199 694 l 99 694 l 99 496 l 0 496 l 0 397 l 99 397 l 99 -199 l 199 -199 l 199 397 l 297 397 z "},"‡":{"ha":396,"x_min":0,"x_max":0,"o":"m 297 397 l 297 496 l 199 496 l 199 694 l 99 694 l 99 496 l 0 496 l 0 397 l 99 397 l 99 99 l 0 99 l 0 0 l 99 0 l 99 -199 l 199 -199 l 199 0 l 297 0 l 297 99 l 199 99 l 199 397 l 297 397 z "},"•":{"ha":396,"x_min":0,"x_max":0,"o":"m 297 99 l 297 397 l 0 397 l 0 99 l 297 99 z "},"…":{"ha":594,"x_min":0,"x_max":0,"o":"m 0 0 l 99 0 l 99 99 l 0 99 l 0 0 z m 199 0 l 297 0 l 297 99 l 199 99 l 199 0 z m 397 99 l 397 0 l 496 0 l 496 99 l 397 99 z "},"‰":{"ha":1586,"x_min":0,"x_max":0,"o":"m 893 793 l 793 793 l 793 694 l 893 694 l 893 793 z m 397 297 l 496 297 l 496 397 l 397 397 l 397 297 z m 199 99 l 297 99 l 297 199 l 199 199 l 199 99 z m 297 199 l 397 199 l 397 297 l 297 297 l 297 199 z m 99 0 l 199 0 l 199 99 l 99 99 l 99 0 z m 297 793 l 99 793 l 99 694 l 297 694 l 297 793 z m 397 496 l 397 694 l 297 694 l 297 496 l 397 496 z m 99 397 l 297 397 l 297 496 l 99 496 l 99 397 z m 99 694 l 0 694 l 0 496 l 99 496 l 99 694 z m 596 297 l 596 99 l 694 99 l 694 297 l 596 297 z m 893 397 l 694 397 l 694 297 l 893 297 l 893 397 z m 893 99 l 992 99 l 992 297 l 893 297 l 893 99 z m 793 694 l 694 694 l 694 596 l 793 596 l 793 694 z m 694 0 l 893 0 l 893 99 l 694 99 l 694 0 z m 694 596 l 596 596 l 596 496 l 694 496 l 694 596 z m 596 496 l 496 496 l 496 397 l 596 397 l 596 496 z m 1092 297 l 1092 99 l 1190 99 l 1190 297 l 1092 297 z m 1190 0 l 1389 0 l 1389 99 l 1190 99 l 1190 0 z m 1389 297 l 1389 99 l 1488 99 l 1488 297 l 1389 297 z m 1389 397 l 1190 397 l 1190 297 l 1389 297 l 1389 397 z "},"‹":{"ha":396,"x_min":0,"x_max":0,"o":"m 297 99 l 297 199 l 199 199 l 199 99 l 297 99 z m 199 199 l 199 297 l 99 297 l 99 199 l 199 199 z m 0 397 l 0 297 l 99 297 l 99 397 l 0 397 z m 199 496 l 99 496 l 99 397 l 199 397 l 199 496 z m 297 596 l 199 596 l 199 496 l 297 496 l 297 596 z "},"›":{"ha":396,"x_min":0,"x_max":0,"o":"m 0 596 l 0 496 l 99 496 l 99 596 l 0 596 z m 99 496 l 99 397 l 199 397 l 199 496 l 99 496 z m 297 297 l 297 397 l 199 397 l 199 297 l 297 297 z m 99 199 l 199 199 l 199 297 l 99 297 l 99 199 z m 0 99 l 99 99 l 99 199 l 0 199 l 0 99 z "},"⁄":{"ha":892,"x_min":0,"x_max":0,"o":"m 0 -99 l 99 -99 l 99 0 l 0 0 l 0 -99 z m 99 0 l 199 0 l 199 99 l 99 99 l 99 0 z m 199 99 l 297 99 l 297 199 l 199 199 l 199 99 z m 297 199 l 397 199 l 397 297 l 297 297 l 297 199 z m 397 297 l 496 297 l 496 397 l 397 397 l 397 297 z m 496 397 l 596 397 l 596 496 l 496 496 l 496 397 z m 596 496 l 694 496 l 694 596 l 596 596 l 596 496 z m 694 694 l 694 596 l 793 596 l 793 694 l 694 694 z "},"€":{"ha":694,"x_min":0,"x_max":0,"o":"m 99 596 l 99 496 l 0 496 l 0 397 l 99 397 l 99 297 l 0 297 l 0 199 l 99 199 l 99 99 l 199 99 l 199 199 l 397 199 l 397 297 l 199 297 l 199 397 l 397 397 l 397 496 l 199 496 l 199 596 l 99 596 z m 596 694 l 199 694 l 199 596 l 596 596 l 596 694 z m 596 0 l 596 99 l 199 99 l 199 0 l 596 0 z "},"₽":{"ha":694,"x_min":0,"x_max":0,"o":"m 199 596 l 496 596 l 496 694 l 99 694 l 99 199 l 0 199 l 0 99 l 99 99 l 99 0 l 199 0 l 199 99 l 297 99 l 297 199 l 199 199 l 199 297 l 496 297 l 496 397 l 199 397 l 199 596 z m 496 596 l 496 397 l 596 397 l 596 596 l 496 596 z "},"ℓ":{"ha":396,"x_min":0,"x_max":0,"o":"m 199 0 l 199 99 l 99 99 l 99 0 l 199 0 z m 199 694 l 99 694 l 99 596 l 199 596 l 199 694 z m 199 596 l 199 397 l 297 397 l 297 596 l 199 596 z m 99 596 l 0 596 l 0 99 l 99 99 l 99 297 l 199 297 l 199 397 l 99 397 l 99 596 z "},"℗":{"ha":892,"x_min":0,"x_max":0,"o":"m 99 596 l 0 596 l 0 99 l 99 99 l 99 596 z m 297 99 l 297 297 l 496 297 l 496 397 l 297 397 l 297 496 l 496 496 l 496 596 l 199 596 l 199 99 l 297 99 z m 199 694 l 99 694 l 99 596 l 199 596 l 199 694 z m 596 496 l 496 496 l 496 397 l 596 397 l 596 496 z m 199 -99 l 596 -99 l 596 0 l 199 0 l 199 -99 z m 596 793 l 199 793 l 199 694 l 596 694 l 596 793 z m 99 99 l 99 0 l 199 0 l 199 99 l 99 99 z m 596 694 l 596 596 l 694 596 l 694 694 l 596 694 z m 694 99 l 793 99 l 793 596 l 694 596 l 694 99 z m 596 0 l 694 0 l 694 99 l 596 99 l 596 0 z "},"™":{"ha":1190,"x_min":0,"x_max":0,"o":"m 0 694 l 0 596 l 199 596 l 199 297 l 297 297 l 297 596 l 496 596 l 496 694 l 0 694 z m 694 596 l 694 694 l 596 694 l 596 297 l 694 297 l 694 496 l 793 496 l 793 596 l 694 596 z m 793 397 l 893 397 l 893 496 l 793 496 l 793 397 z m 992 694 l 992 596 l 893 596 l 893 496 l 992 496 l 992 297 l 1092 297 l 1092 694 l 992 694 z "},"Ω":{"ha":594,"x_min":0,"x_max":0,"o":"m 0 199 l 99 199 l 99 99 l 0 99 l 0 0 l 199 0 l 199 199 l 99 199 l 99 596 l 0 596 l 0 199 z m 397 596 l 397 199 l 496 199 l 496 596 l 397 596 z m 99 694 l 99 596 l 397 596 l 397 694 l 99 694 z m 397 199 l 297 199 l 297 0 l 496 0 l 496 99 l 397 99 l 397 199 z "},"℮":{"ha":793,"x_min":0,"x_max":0,"o":"m 347 14 b 149 79 272 14 204 38 l 149 347 l 708 347 b 347 708 708 547 547 708 b -14 347 147 708 -14 547 b 347 -14 -14 147 147 -14 b 676 199 493 -14 619 74 l 646 199 b 347 14 590 89 478 14 z m 347 681 b 546 615 421 681 490 656 l 546 375 l 149 375 l 149 615 b 347 681 204 656 272 681 z "},"∂":{"ha":594,"x_min":0,"x_max":0,"o":"m 0 297 l 0 99 l 99 99 l 99 297 l 0 297 z m 99 0 l 397 0 l 397 99 l 99 99 l 99 0 z m 99 694 l 99 596 l 397 596 l 397 694 l 99 694 z m 397 596 l 397 397 l 99 397 l 99 297 l 397 297 l 397 99 l 496 99 l 496 596 l 397 596 z "},"∆":{"ha":594,"x_min":0,"x_max":0,"o":"m 397 496 l 397 596 l 297 596 l 297 496 l 397 496 z m 199 596 l 297 596 l 297 694 l 199 694 l 199 596 l 99 596 l 99 496 l 199 496 l 199 596 z m 397 496 l 397 99 l 99 99 l 99 496 l 0 496 l 0 0 l 496 0 l 496 496 l 397 496 z "},"∏":{"ha":594,"x_min":0,"x_max":0,"o":"m 0 694 l 0 0 l 99 0 l 99 596 l 397 596 l 397 0 l 496 0 l 496 694 l 0 694 z "},"∑":{"ha":594,"x_min":0,"x_max":0,"o":"m 0 0 l 496 0 l 496 99 l 99 99 l 99 199 l 0 199 l 0 0 z m 99 199 l 199 199 l 199 297 l 99 297 l 99 199 z m 297 297 l 297 397 l 199 397 l 199 297 l 297 297 z m 199 397 l 199 496 l 99 496 l 99 397 l 199 397 z m 496 596 l 496 694 l 0 694 l 0 496 l 99 496 l 99 596 l 496 596 z "},"−":{"ha":594,"x_min":0,"x_max":0,"o":"m 0 297 l 496 297 l 496 397 l 0 397 l 0 297 z "},"∕":{"ha":892,"x_min":0,"x_max":0,"o":"m 0 -99 l 99 -99 l 99 0 l 0 0 l 0 -99 z m 99 0 l 199 0 l 199 99 l 99 99 l 99 0 z m 199 99 l 297 99 l 297 199 l 199 199 l 199 99 z m 297 199 l 397 199 l 397 297 l 297 297 l 297 199 z m 397 297 l 496 297 l 496 397 l 397 397 l 397 297 z m 496 397 l 596 397 l 596 496 l 496 496 l 496 397 z m 596 496 l 694 496 l 694 596 l 596 596 l 596 496 z m 694 694 l 694 596 l 793 596 l 793 694 l 694 694 z "},"∙":{"ha":197,"x_min":0,"x_max":0,"o":"m 99 199 l 99 297 l 0 297 l 0 199 l 99 199 z "},"√":{"ha":1289,"x_min":0,"x_max":0,"o":"m 0 297 l 0 199 l 199 199 l 199 297 l 0 297 z m 199 199 l 199 99 l 297 99 l 297 199 l 199 199 z m 297 99 l 297 0 l 397 0 l 397 99 l 297 99 z m 397 -99 l 496 -99 l 496 0 l 397 0 l 397 -99 z m 496 0 l 596 0 l 596 99 l 496 99 l 496 0 z m 596 99 l 694 99 l 694 199 l 596 199 l 596 99 z m 694 199 l 793 199 l 793 297 l 694 297 l 694 199 z m 793 297 l 893 297 l 893 397 l 793 397 l 793 297 z m 893 397 l 992 397 l 992 496 l 893 496 l 893 397 z m 992 496 l 1092 496 l 1092 596 l 992 596 l 992 496 z m 1092 694 l 1092 596 l 1190 596 l 1190 694 l 1092 694 z "},"∞":{"ha":793,"x_min":0,"x_max":0,"o":"m 99 199 l 297 199 l 297 297 l 99 297 l 99 199 z m 596 199 l 596 297 l 397 297 l 397 199 l 596 199 z m 297 297 l 397 297 l 397 397 l 297 397 l 297 297 z m 397 496 l 397 397 l 596 397 l 596 496 l 397 496 z m 99 496 l 99 397 l 297 397 l 297 496 l 99 496 z m 0 297 l 99 297 l 99 397 l 0 397 l 0 297 z m 596 397 l 596 297 l 694 297 l 694 397 l 596 397 z "},"∫":{"ha":396,"x_min":0,"x_max":0,"o":"m 99 -99 l 199 -99 l 199 596 l 99 596 l 99 -99 z m 199 694 l 199 596 l 297 596 l 297 694 l 199 694 z m 0 -199 l 99 -199 l 99 -99 l 0 -99 l 0 -199 z "},"≈":{"ha":694,"x_min":0,"x_max":0,"o":"m 496 199 l 596 199 l 596 297 l 496 297 l 496 199 z m 0 99 l 99 99 l 99 199 l 0 199 l 0 99 z m 297 297 l 99 297 l 99 199 l 297 199 l 297 99 l 496 99 l 496 199 l 297 199 l 297 297 z m 0 397 l 99 397 l 99 496 l 0 496 l 0 397 z m 297 596 l 99 596 l 99 496 l 297 496 l 297 397 l 496 397 l 496 496 l 297 496 l 297 596 z m 496 596 l 496 496 l 596 496 l 596 596 l 496 596 z "},"≠":{"ha":594,"x_min":0,"x_max":0,"o":"m 496 397 l 496 496 l 397 496 l 397 596 l 297 596 l 297 496 l 0 496 l 0 397 l 199 397 l 199 297 l 0 297 l 0 199 l 99 199 l 99 99 l 199 99 l 199 199 l 496 199 l 496 297 l 297 297 l 297 397 l 496 397 z "},"≤":{"ha":496,"x_min":0,"x_max":0,"o":"m 199 297 l 199 397 l 99 397 l 99 297 l 199 297 z m 297 199 l 297 99 l 397 99 l 397 199 l 297 199 l 297 297 l 199 297 l 199 199 l 297 199 z m 297 694 l 397 694 l 397 793 l 297 793 l 297 694 l 199 694 l 199 596 l 297 596 l 297 694 z m 0 496 l 0 397 l 99 397 l 99 496 l 0 496 z m 199 596 l 99 596 l 99 496 l 199 496 l 199 596 z m 0 -99 l 397 -99 l 397 0 l 0 0 l 0 -99 z "},"≥":{"ha":496,"x_min":0,"x_max":0,"o":"m 99 694 l 99 793 l 0 793 l 0 694 l 99 694 l 99 596 l 199 596 l 199 694 l 99 694 z m 199 596 l 199 496 l 297 496 l 297 596 l 199 596 z m 397 496 l 297 496 l 297 397 l 397 397 l 397 496 z m 0 -99 l 397 -99 l 397 0 l 0 0 l 0 -99 z m 99 199 l 199 199 l 199 297 l 99 297 l 99 199 l 0 199 l 0 99 l 99 99 l 99 199 z m 297 397 l 199 397 l 199 297 l 297 297 l 297 397 z "},"◊":{"ha":594,"x_min":0,"x_max":0,"o":"m 199 596 l 99 596 l 99 496 l 199 496 l 199 596 z m 397 496 l 397 596 l 297 596 l 297 496 l 397 496 z m 397 496 l 397 199 l 297 199 l 297 99 l 397 99 l 397 199 l 496 199 l 496 496 l 397 496 z m 297 694 l 199 694 l 199 596 l 297 596 l 297 694 z m 199 0 l 297 0 l 297 99 l 199 99 l 199 0 z m 99 199 l 99 496 l 0 496 l 0 199 l 99 199 l 99 99 l 199 99 l 199 199 l 99 199 z "},"":{"ha":694,"x_min":0,"x_max":0,"o":"m 199 99 l 199 297 l 297 297 l 297 397 l 199 397 l 199 496 l 99 496 l 99 199 l 0 199 l 0 99 l 99 99 l 99 0 l 596 0 l 596 99 l 199 99 z m 397 496 l 297 496 l 297 397 l 397 397 l 397 496 z "},"":{"ha":992,"x_min":0,"x_max":0,"o":"m 99 0 l 397 0 l 397 99 l 99 99 l 99 0 z m 0 397 l 0 99 l 99 99 l 99 397 l 0 397 z m 397 496 l 99 496 l 99 397 l 397 397 l 397 496 z m 893 199 l 893 297 l 496 297 l 496 397 l 893 397 l 893 496 l 496 496 l 496 397 l 397 397 l 397 99 l 496 99 l 496 0 l 893 0 l 893 99 l 496 99 l 496 199 l 893 199 z "},"":{"ha":594,"x_min":0,"x_max":0,"o":"m 99 793 l 99 694 l 199 694 l 199 793 l 99 793 z m 199 596 l 297 596 l 297 694 l 199 694 l 199 596 z m 297 793 l 297 694 l 397 694 l 397 793 l 297 793 z m 0 0 l 397 0 l 397 99 l 0 99 l 0 0 z m 496 99 l 496 199 l 397 199 l 397 99 l 496 99 z m 397 199 l 397 297 l 99 297 l 99 199 l 397 199 z m 0 397 l 0 297 l 99 297 l 99 397 l 0 397 z m 496 496 l 99 496 l 99 397 l 496 397 l 496 496 z "},"":{"ha":594,"x_min":0,"x_max":0,"o":"m 99 793 l 99 694 l 199 694 l 199 793 l 99 793 z m 199 596 l 297 596 l 297 694 l 199 694 l 199 596 z m 297 793 l 297 694 l 397 694 l 397 793 l 297 793 z m 99 199 l 99 99 l 0 99 l 0 0 l 496 0 l 496 99 l 199 99 l 199 199 l 99 199 z m 297 297 l 199 297 l 199 199 l 297 199 l 297 297 z m 397 397 l 496 397 l 496 496 l 0 496 l 0 397 l 297 397 l 297 297 l 397 297 l 397 397 z "},"":{"ha":594,"x_min":0,"x_max":0,"o":"m 397 496 l 99 496 l 99 397 l 397 397 l 397 496 z m 397 397 l 397 297 l 99 297 l 99 397 l 0 397 l 0 0 l 99 0 l 99 199 l 397 199 l 397 0 l 496 0 l 496 397 l 397 397 z "},"":{"ha":594,"x_min":0,"x_max":0,"o":"m 496 297 l 496 397 l 397 397 l 397 297 l 496 297 z m 99 297 l 99 397 l 397 397 l 397 496 l 0 496 l 0 0 l 397 0 l 397 99 l 99 99 l 99 199 l 397 199 l 397 297 l 99 297 z m 496 99 l 496 199 l 397 199 l 397 99 l 496 99 z "},"":{"ha":594,"x_min":0,"x_max":0,"o":"m 0 397 l 0 99 l 99 99 l 99 397 l 0 397 z m 496 496 l 99 496 l 99 397 l 496 397 l 496 496 z m 496 0 l 496 99 l 99 99 l 99 0 l 496 0 z "},"":{"ha":594,"x_min":0,"x_max":0,"o":"m 99 397 l 397 397 l 397 496 l 0 496 l 0 0 l 397 0 l 397 99 l 99 99 l 99 397 z m 397 397 l 397 99 l 496 99 l 496 397 l 397 397 z "},"":{"ha":594,"x_min":0,"x_max":0,"o":"m 496 397 l 496 496 l 0 496 l 0 0 l 496 0 l 496 99 l 99 99 l 99 199 l 496 199 l 496 297 l 99 297 l 99 397 l 496 397 z "},"":{"ha":594,"x_min":0,"x_max":0,"o":"m 496 397 l 496 496 l 0 496 l 0 0 l 99 0 l 99 199 l 496 199 l 496 297 l 99 297 l 99 397 l 496 397 z "},"":{"ha":594,"x_min":0,"x_max":0,"o":"m 0 397 l 0 99 l 99 99 l 99 397 l 0 397 z m 496 0 l 496 297 l 397 297 l 397 99 l 99 99 l 99 0 l 496 0 z m 496 496 l 99 496 l 99 397 l 496 397 l 496 496 z "},"":{"ha":594,"x_min":0,"x_max":0,"o":"m 397 496 l 397 297 l 99 297 l 99 496 l 0 496 l 0 0 l 99 0 l 99 199 l 397 199 l 397 0 l 496 0 l 496 496 l 397 496 z "},"":{"ha":396,"x_min":0,"x_max":0,"o":"m 0 397 l 99 397 l 99 99 l 0 99 l 0 0 l 297 0 l 297 99 l 199 99 l 199 397 l 297 397 l 297 496 l 0 496 l 0 397 z "},"":{"ha":594,"x_min":0,"x_max":0,"o":"m 0 297 l 0 99 l 99 99 l 99 297 l 0 297 z m 99 0 l 397 0 l 397 99 l 99 99 l 99 0 z m 199 496 l 199 397 l 397 397 l 397 99 l 496 99 l 496 496 l 199 496 z "},"":{"ha":496,"x_min":0,"x_max":0,"o":"m 99 297 l 99 496 l 0 496 l 0 0 l 99 0 l 99 199 l 199 199 l 199 297 l 99 297 z m 297 99 l 297 199 l 199 199 l 199 99 l 297 99 z m 397 0 l 397 99 l 297 99 l 297 0 l 397 0 z m 297 397 l 199 397 l 199 297 l 297 297 l 297 397 z m 397 496 l 297 496 l 297 397 l 397 397 l 397 496 z "},"":{"ha":594,"x_min":0,"x_max":0,"o":"m 99 99 l 99 496 l 0 496 l 0 0 l 0 0 l 496 0 l 496 99 l 99 99 z "},"":{"ha":793,"x_min":0,"x_max":0,"o":"m 99 397 l 99 496 l 0 496 l 0 0 l 99 0 l 99 297 l 199 297 l 199 397 l 99 397 z m 199 297 l 199 199 l 297 199 l 297 297 l 199 297 z m 297 99 l 397 99 l 397 199 l 297 199 l 297 99 z m 397 199 l 496 199 l 496 297 l 397 297 l 397 199 z m 596 496 l 596 397 l 496 397 l 496 297 l 596 297 l 596 0 l 694 0 l 694 496 l 596 496 z "},"":{"ha":594,"x_min":0,"x_max":0,"o":"m 99 397 l 99 496 l 0 496 l 0 0 l 99 0 l 99 297 l 199 297 l 199 397 l 99 397 z m 199 297 l 199 199 l 297 199 l 297 297 l 199 297 z m 397 496 l 397 199 l 297 199 l 297 99 l 397 99 l 397 0 l 496 0 l 496 496 l 397 496 z "},"":{"ha":594,"x_min":0,"x_max":0,"o":"m 0 397 l 0 99 l 99 99 l 99 397 l 0 397 z m 99 0 l 397 0 l 397 99 l 99 99 l 99 0 z m 397 397 l 397 99 l 496 99 l 496 397 l 397 397 z m 397 496 l 99 496 l 99 397 l 397 397 l 397 496 z "},"":{"ha":594,"x_min":0,"x_max":0,"o":"m 99 397 l 397 397 l 397 496 l 0 496 l 0 0 l 99 0 l 99 199 l 397 199 l 397 297 l 99 297 l 99 397 z m 397 397 l 397 297 l 496 297 l 496 397 l 397 397 z "},"":{"ha":594,"x_min":0,"x_max":0,"o":"m 99 99 l 99 0 l 397 0 l 397 99 l 99 99 z m 0 397 l 0 99 l 99 99 l 99 397 l 0 397 z m 397 496 l 99 496 l 99 397 l 397 397 l 397 496 z m 496 99 l 496 397 l 397 397 l 397 99 l 496 99 z m 397 0 l 397 -99 l 496 -99 l 496 0 l 397 0 z "},"":{"ha":594,"x_min":0,"x_max":0,"o":"m 496 297 l 496 397 l 397 397 l 397 297 l 496 297 z m 99 297 l 99 397 l 397 397 l 397 496 l 0 496 l 0 0 l 99 0 l 99 199 l 397 199 l 397 297 l 99 297 z m 496 0 l 496 199 l 397 199 l 397 0 l 496 0 z "},"":{"ha":594,"x_min":0,"x_max":0,"o":"m 0 0 l 397 0 l 397 99 l 0 99 z m 496 99 l 496 199 l 397 199 l 397 99 z m 397 199 l 397 297 l 99 297 l 99 199 z m 0 397 l 0 297 l 99 297 l 99 397 z m 496 496 l 99 496 l 99 397 l 496 397 z "},"":{"ha":594,"x_min":0,"x_max":0,"o":"m 496 496 l 0 496 l 0 397 l 199 397 l 199 0 l 297 0 l 297 397 l 496 397 l 496 496 z "},"":{"ha":594,"x_min":0,"x_max":0,"o":"m 0 496 l 0 99 l 99 99 l 99 496 l 0 496 z m 99 0 l 397 0 l 397 99 l 99 99 l 99 0 z m 397 496 l 397 99 l 496 99 l 496 496 l 397 496 z "},"":{"ha":594,"x_min":0,"x_max":0,"o":"m 199 0 l 297 0 l 297 99 l 199 99 l 199 0 z m 99 199 l 99 99 l 199 99 l 199 199 l 99 199 z m 297 99 l 397 99 l 397 199 l 297 199 l 297 99 z m 397 496 l 397 199 l 496 199 l 496 496 l 397 496 z m 0 496 l 0 199 l 99 199 l 99 496 l 0 496 z "},"":{"ha":793,"x_min":0,"x_max":0,"o":"m 0 496 l 0 99 l 99 99 l 99 496 l 0 496 z m 99 0 l 199 0 l 199 99 l 99 99 l 99 0 z m 199 99 l 297 99 l 297 199 l 199 199 l 199 99 z m 297 297 l 297 199 l 397 199 l 397 297 l 297 297 z m 397 199 l 397 99 l 496 99 l 496 199 l 397 199 z m 496 0 l 596 0 l 596 99 l 496 99 l 496 0 z m 596 496 l 596 99 l 694 99 l 694 496 l 596 496 z "},"":{"ha":594,"x_min":0,"x_max":0,"o":"m 0 0 l 99 0 l 99 99 l 0 99 l 0 0 z m 99 99 l 199 99 l 199 199 l 99 199 l 99 99 z m 199 297 l 199 199 l 297 199 l 297 297 l 199 297 z m 397 99 l 397 199 l 297 199 l 297 99 l 397 99 z m 496 0 l 496 99 l 397 99 l 397 0 l 496 0 z m 99 397 l 99 297 l 199 297 l 199 397 l 99 397 z m 0 496 l 0 397 l 99 397 l 99 496 l 0 496 z m 397 397 l 297 397 l 297 297 l 397 297 l 397 397 z m 496 496 l 397 496 l 397 397 l 496 397 l 496 496 z "},"":{"ha":594,"x_min":0,"x_max":0,"o":"m 199 0 l 297 0 l 297 199 l 199 199 l 199 0 z m 99 297 l 99 199 l 199 199 l 199 297 l 99 297 z m 297 199 l 397 199 l 397 297 l 297 297 l 297 199 z m 397 496 l 397 297 l 496 297 l 496 496 l 397 496 z m 0 496 l 0 297 l 99 297 l 99 496 l 0 496 z "},"":{"ha":594,"x_min":0,"x_max":0,"o":"m 99 199 l 99 99 l 0 99 l 0 0 l 496 0 l 496 99 l 199 99 l 199 199 z m 297 297 l 199 297 l 199 199 l 297 199 z m 397 397 l 496 397 l 496 496 l 0 496 l 0 397 l 297 397 l 297 297 l 397 297 z "},"":{"ha":594,"x_min":0,"x_max":0,"o":"m 199 694 l 199 596 l 297 596 l 297 694 l 199 694 z m 99 793 l 99 694 l 199 694 l 199 793 l 99 793 z m 397 496 l 99 496 l 99 397 l 397 397 z m 397 397 l 397 297 l 99 297 l 99 397 l 0 397 l 0 0 l 99 0 l 99 199 l 397 199 l 397 0 l 496 0 l 496 397 z "},"":{"ha":594,"x_min":0,"x_max":0,"o":"m 297 694 l 199 694 l 199 596 l 297 596 z m 397 793 l 297 793 l 297 694 l 397 694 z m 397 496 l 99 496 l 99 397 l 397 397 z m 397 397 l 397 297 l 99 297 l 99 397 l 0 397 l 0 0 l 99 0 l 99 199 l 397 199 l 397 0 l 496 0 l 496 397 z "},"":{"ha":594,"x_min":0,"x_max":0,"o":"m 99 596 l 199 596 l 199 694 l 99 694 l 99 596 z m 199 793 l 199 694 l 297 694 l 297 793 l 199 793 z m 297 694 l 297 596 l 397 596 l 397 694 l 297 694 z m 397 496 l 99 496 l 99 397 l 397 397 z m 397 397 l 397 297 l 99 297 l 99 397 l 0 397 l 0 0 l 99 0 l 99 199 l 397 199 l 397 0 l 496 0 l 496 397 z "},"":{"ha":594,"x_min":0,"x_max":0,"o":"m 397 596 l 397 694 l 99 694 l 99 596 z m 397 496 l 99 496 l 99 397 l 397 397 z m 397 397 l 397 297 l 99 297 l 99 397 l 0 397 l 0 0 l 99 0 l 99 199 l 397 199 l 397 0 l 496 0 l 496 397 z "},"":{"ha":594,"x_min":0,"x_max":0,"o":"m 99 596 l 199 596 l 199 694 l 99 694 l 99 596 z m 297 694 l 297 596 l 397 596 l 397 694 l 297 694 z m 397 496 l 99 496 l 99 397 l 397 397 z m 397 397 l 397 297 l 99 297 l 99 397 l 0 397 l 0 0 l 99 0 l 99 199 l 397 199 l 397 0 l 496 0 l 496 397 z "},"":{"ha":594,"x_min":0,"x_max":0,"o":"m 199 596 l 297 596 l 297 694 l 199 694 l 199 596 z m 99 793 l 99 694 l 199 694 l 199 793 l 99 793 z m 297 893 l 199 893 l 199 793 l 297 793 l 297 893 z m 297 793 l 297 694 l 397 694 l 397 793 l 297 793 z m 397 496 l 99 496 l 99 397 l 397 397 z m 397 397 l 397 297 l 99 297 l 99 397 l 0 397 l 0 0 l 99 0 l 99 199 l 397 199 l 397 0 l 496 0 l 496 397 z "},"":{"ha":992,"x_min":0,"x_max":0,"o":"m 397 496 l 99 496 l 99 397 l 397 397 l 397 496 z m 893 199 l 893 297 l 496 297 l 496 397 l 893 397 l 893 496 l 496 496 l 496 397 l 397 397 l 397 297 l 99 297 l 99 397 l 0 397 l 0 0 l 99 0 l 99 199 l 397 199 l 397 0 l 893 0 l 893 99 l 496 99 l 496 199 l 893 199 z "},"":{"ha":594,"x_min":0,"x_max":0,"o":"m 199 0 l 199 -99 l 297 -99 l 297 0 l 496 0 l 496 99 l 99 99 l 99 0 l 199 0 z m 496 496 l 99 496 l 99 397 l 496 397 l 496 496 z m 0 397 l 0 99 l 99 99 l 99 397 l 0 397 z m 397 -199 l 397 -99 l 297 -99 l 297 -199 l 397 -199 z m 199 -297 l 297 -297 l 297 -199 l 199 -199 l 199 -297 z "},"":{"ha":594,"x_min":0,"x_max":0,"o":"m 199 694 l 199 596 l 297 596 l 297 694 z m 99 793 l 99 694 l 199 694 l 199 793 z m 496 397 l 496 496 l 0 496 l 0 0 l 496 0 l 496 99 l 99 99 l 99 199 l 496 199 l 496 297 l 99 297 l 99 397 z "},"":{"ha":594,"x_min":0,"x_max":0,"o":"m 199 694 l 199 596 l 297 596 l 297 694 z m 297 793 l 297 694 l 397 694 l 397 793 z m 496 397 l 496 496 l 0 496 l 0 0 l 496 0 l 496 99 l 99 99 l 99 199 l 496 199 l 496 297 l 99 297 l 99 397 z "},"":{"ha":594,"x_min":0,"x_max":0,"o":"m 99 596 l 199 596 l 199 694 l 99 694 z m 199 793 l 199 694 l 297 694 l 297 793 z m 297 694 l 297 596 l 397 596 l 397 694 z m 496 397 l 496 496 l 0 496 l 0 0 l 496 0 l 496 99 l 99 99 l 99 199 l 496 199 l 496 297 l 99 297 l 99 397 z "},"":{"ha":594,"x_min":0,"x_max":0,"o":"m 99 596 l 199 596 l 199 694 l 99 694 z m 297 694 l 297 596 l 397 596 l 397 694 z m 496 397 l 496 496 l 0 496 l 0 0 l 496 0 l 496 99 l 99 99 l 99 199 l 496 199 l 496 297 l 99 297 l 99 397 z "},"":{"ha":396,"x_min":0,"x_max":0,"o":"m 99 694 l 99 596 l 199 596 l 199 694 l 99 694 z m 0 793 l 0 694 l 99 694 l 99 793 l 0 793 z m 0 397 l 99 397 l 99 99 l 0 99 l 0 0 l 297 0 l 297 99 l 199 99 l 199 397 l 297 397 l 297 496 l 0 496 z "},"":{"ha":396,"x_min":0,"x_max":0,"o":"m 197 694 l 99 694 l 99 596 l 197 596 z m 297 793 l 197 793 l 197 694 l 297 694 z m 0 397 l 99 397 l 99 99 l 0 99 l 0 0 l 297 0 l 297 99 l 199 99 l 199 397 l 297 397 l 297 496 l 0 496 z "},"":{"ha":396,"x_min":0,"x_max":0,"o":"m 0 596 l 99 596 l 99 694 l 0 694 l 0 596 z m 99 793 l 99 694 l 199 694 l 199 793 l 99 793 z m 199 694 l 199 596 l 297 596 l 297 694 l 199 694 z m 0 397 l 99 397 l 99 99 l 0 99 l 0 0 l 297 0 l 297 99 l 199 99 l 199 397 l 297 397 l 297 496 l 0 496 z "},"":{"ha":396,"x_min":0,"x_max":0,"o":"m 0 596 l 99 596 l 99 694 l 0 694 l 0 596 z m 199 694 l 199 596 l 297 596 l 297 694 l 199 694 z m 0 397 l 99 397 l 99 99 l 0 99 l 0 0 l 297 0 l 297 99 l 199 99 l 199 397 l 297 397 l 297 496 l 0 496 z "},"":{"ha":694,"x_min":0,"x_max":0,"o":"m 199 199 l 297 199 l 297 297 l 199 297 l 199 397 l 496 397 l 496 496 l 99 496 l 99 297 l 0 297 l 0 199 l 99 199 l 99 0 l 496 0 l 496 99 l 199 99 l 199 199 z m 496 397 l 496 99 l 596 99 l 596 397 l 496 397 z "},"":{"ha":594,"x_min":0,"x_max":0,"o":"m 397 694 l 99 694 l 99 596 l 397 596 l 397 694 z m 99 397 l 99 496 l 0 496 l 0 0 l 99 0 l 99 297 l 199 297 l 199 397 l 99 397 z m 199 297 l 199 199 l 297 199 l 297 297 l 199 297 z m 397 496 l 397 199 l 297 199 l 297 99 l 397 99 l 397 0 l 496 0 l 496 496 l 397 496 z "},"":{"ha":594,"x_min":0,"x_max":0,"o":"m 199 694 l 199 596 l 297 596 l 297 694 z m 99 793 l 99 694 l 199 694 l 199 793 z m 0 397 l 0 99 l 99 99 l 99 397 l 0 397 z m 99 0 l 397 0 l 397 99 l 99 99 l 99 0 z m 397 397 l 397 99 l 496 99 l 496 397 l 397 397 z m 397 496 l 99 496 l 99 397 l 397 397 l 397 496 z "},"":{"ha":594,"x_min":0,"x_max":0,"o":"m 199 694 l 199 596 l 297 596 l 297 694 z m 297 793 l 297 694 l 397 694 l 397 793 z m 0 397 l 0 99 l 99 99 l 99 397 l 0 397 z m 99 0 l 397 0 l 397 99 l 99 99 l 99 0 z m 397 397 l 397 99 l 496 99 l 496 397 l 397 397 z m 397 496 l 99 496 l 99 397 l 397 397 l 397 496 z "},"":{"ha":594,"x_min":0,"x_max":0,"o":"m 99 596 l 199 596 l 199 694 l 99 694 z m 199 793 l 199 694 l 297 694 l 297 793 z m 297 694 l 297 596 l 397 596 l 397 694 z m 0 397 l 0 99 l 99 99 l 99 397 l 0 397 z m 99 0 l 397 0 l 397 99 l 99 99 l 99 0 z m 397 397 l 397 99 l 496 99 l 496 397 l 397 397 z m 397 496 l 99 496 l 99 397 l 397 397 l 397 496 z "},"":{"ha":594,"x_min":0,"x_max":0,"o":"m 397 694 l 99 694 l 99 596 l 397 596 z m 0 397 l 0 99 l 99 99 l 99 397 l 0 397 z m 99 0 l 397 0 l 397 99 l 99 99 l 99 0 z m 397 397 l 397 99 l 496 99 l 496 397 l 397 397 z m 397 496 l 99 496 l 99 397 l 397 397 l 397 496 z "},"":{"ha":594,"x_min":0,"x_max":0,"o":"m 99 596 l 199 596 l 199 694 l 99 694 z m 297 694 l 297 596 l 397 596 l 397 694 z m 0 397 l 0 99 l 99 99 l 99 397 l 0 397 z m 99 0 l 397 0 l 397 99 l 99 99 l 99 0 z m 397 397 l 397 99 l 496 99 l 496 397 l 397 397 z m 397 496 l 99 496 l 99 397 l 397 397 l 397 496 z "},"":{"ha":594,"x_min":0,"x_max":0,"o":"m 397 397 l 397 496 l 99 496 l 99 397 l 297 397 l 297 297 l 199 297 l 199 199 l 297 199 l 297 297 l 397 297 l 397 99 l 496 99 l 496 397 l 397 397 z m 199 199 l 99 199 l 99 397 l 0 397 l 0 99 l 99 99 l 99 0 l 397 0 l 397 99 l 199 99 l 199 199 z "},"":{"ha":594,"x_min":0,"x_max":0,"o":"m 199 694 l 199 596 l 297 596 l 297 694 z m 99 793 l 99 694 l 199 694 l 199 793 z m 0 496 l 0 99 l 99 99 l 99 496 l 0 496 z m 99 0 l 397 0 l 397 99 l 99 99 l 99 0 z m 397 496 l 397 99 l 496 99 l 496 496 l 397 496 z "},"":{"ha":594,"x_min":0,"x_max":0,"o":"m 199 694 l 199 596 l 297 596 l 297 694 z m 297 793 l 297 694 l 397 694 l 397 793 z m 0 496 l 0 99 l 99 99 l 99 496 l 0 496 z m 99 0 l 397 0 l 397 99 l 99 99 l 99 0 z m 397 496 l 397 99 l 496 99 l 496 496 l 397 496 z "},"":{"ha":594,"x_min":0,"x_max":0,"o":"m 99 596 l 199 596 l 199 694 l 99 694 z m 199 793 l 199 694 l 297 694 l 297 793 z m 297 694 l 297 596 l 397 596 l 397 694 z m 0 496 l 0 99 l 99 99 l 99 496 l 0 496 z m 99 0 l 397 0 l 397 99 l 99 99 l 99 0 z m 397 496 l 397 99 l 496 99 l 496 496 l 397 496 z "},"":{"ha":594,"x_min":0,"x_max":0,"o":"m 99 596 l 199 596 l 199 694 l 99 694 z m 297 694 l 297 596 l 397 596 l 397 694 z m 0 496 l 0 99 l 99 99 l 99 496 l 0 496 z m 99 0 l 397 0 l 397 99 l 99 99 l 99 0 z m 397 496 l 397 99 l 496 99 l 496 496 l 397 496 z "},"":{"ha":594,"x_min":0,"x_max":0,"o":"m 199 694 l 199 596 l 297 596 l 297 694 z m 297 793 l 297 694 l 397 694 l 397 793 z m 199 0 l 297 0 l 297 199 l 199 199 z m 99 297 l 99 199 l 199 199 l 199 297 z m 297 199 l 397 199 l 397 297 l 297 297 z m 397 496 l 397 297 l 496 297 l 496 496 z m 0 496 l 0 297 l 99 297 l 99 496 z "},"":{"ha":594,"x_min":0,"x_max":0,"o":"m 99 297 l 397 297 l 397 397 l 99 397 l 99 496 l 0 496 l 0 0 l 99 0 l 99 99 l 397 99 l 397 199 l 99 199 l 99 297 z m 397 297 l 397 199 l 496 199 l 496 297 l 397 297 z "},"":{"ha":594,"x_min":0,"x_max":0,"o":"m 99 596 l 199 596 l 199 694 l 99 694 z m 297 694 l 297 596 l 397 596 l 397 694 z m 199 0 l 297 0 l 297 199 l 199 199 z m 99 297 l 99 199 l 199 199 l 199 297 z m 297 199 l 397 199 l 397 297 l 297 297 z m 397 496 l 397 297 l 496 297 l 496 496 z m 0 496 l 0 297 l 99 297 l 99 496 z "},"ﮙ":{"ha":779,"x_min":0,"x_max":0,"o":"m 340 781 b 457 897 404 781 457 833 b 340 1014 457 961 404 1014 b 224 897 276 1014 224 961 b 340 781 224 833 276 781 z m 340 722 b 0 382 153 722 0 569 b 340 42 0 194 153 42 b 681 382 528 42 681 194 b 340 722 681 569 528 722 z m 496 467 b 483 453 496 453 489 453 l 406 453 b 392 467 399 453 392 453 l 392 511 b 379 525 392 525 386 525 l 301 525 b 289 511 294 525 289 525 l 289 253 b 301 239 289 239 294 239 l 379 239 b 392 253 386 239 392 239 l 392 324 l 340 324 b 328 336 333 324 328 324 l 328 401 b 340 414 328 414 333 414 l 483 414 b 496 401 489 414 496 414 l 496 226 b 379 149 496 149 444 149 l 301 149 b 185 226 236 149 185 149 l 185 538 b 301 615 185 615 236 615 l 379 615 b 496 538 444 615 496 615 l 496 467 z "}}}
